<svg width="48" height="49" viewBox="0 0 48 49" fill="none" xmlns="http://www.w3.org/2000/svg">
<path d="M31 32.003H17V21.003H31M31 16.003H30V14.003H28V16.003H20V14.003H18V16.003H17C15.89 16.003 15 16.903 15 18.003V32.003C15 32.5335 15.2107 33.0422 15.5858 33.4172C15.9609 33.7923 16.4696 34.003 17 34.003H31C31.5304 34.003 32.0391 33.7923 32.4142 33.4172C32.7893 33.0422 33 32.5335 33 32.003V18.003C33 17.4726 32.7893 16.9639 32.4142 16.5888C32.0391 16.2137 31.5304 16.003 31 16.003ZM28.53 24.063L27.47 23.003L22.59 27.883L20.47 25.763L19.41 26.823L22.59 30.003L28.53 24.063Z" fill="#FF5805"/>
<rect x="0.5" y="0.503021" width="47" height="47" rx="23.5" stroke="#FF5805" stroke-opacity="0.2"/>
</svg>
