<svg width="223" height="65" viewBox="0 0 223 65" fill="none" xmlns="http://www.w3.org/2000/svg">
<path d="M38.3717 60.5852C44.8922 59.4398 51.412 58.2903 57.931 57.1367L58.1147 57.0976L48.0538 45.1757C42.5206 38.6188 37.9933 33.2286 37.9933 33.1979C37.9933 33.1392 48.3817 4.63894 48.4402 4.53734C48.4596 4.50376 55.5293 16.6633 65.5776 34.0137C74.9849 50.2569 82.7407 63.6495 82.8127 63.7751L82.9438 64.003L50.9704 63.9988L18.9967 63.9946L38.3717 60.5852ZM160.987 57.7018C156.12 57.3911 153.289 54.6303 152.539 49.4622C152.339 48.0877 152.339 48.0516 152.318 39.1272L152.299 30.4892H156.607L156.624 38.8438C156.639 46.3743 156.648 47.2572 156.72 47.7866C157.014 49.9366 157.598 51.3825 158.592 52.4199C159.387 53.2503 160.319 53.7369 161.608 53.9947C162.216 54.1164 163.947 54.1164 164.501 53.9951C165.807 53.7088 166.855 53.142 167.779 52.2217C168.833 51.173 169.612 49.6847 169.989 48.0024L170.116 47.4348L170.13 39.0092L170.144 30.5837H174.542V57.0741H170.189V54.9729C170.189 53.545 170.174 52.8762 170.141 52.8876C170.114 52.8964 170.001 53.0668 169.892 53.2663C169.142 54.6286 167.892 55.8751 166.523 56.6258C164.882 57.5255 163.236 57.8454 160.987 57.7018ZM210.387 57.6808C208.669 57.5519 206.86 56.9633 205.382 56.0518C202.265 54.132 200.421 50.9664 199.881 46.6099C199.695 45.1027 199.672 43.0774 199.828 41.7965C200.176 38.9345 201.305 36.1246 202.913 34.1186C203.325 33.6048 204.26 32.6731 204.776 32.263C206.166 31.1559 207.793 30.3821 209.531 30.0013C210.54 29.7818 212.316 29.6785 213.387 29.7776C216.079 30.0261 218.546 31.2885 220.223 33.2756C221.926 35.295 222.863 38.1163 222.982 41.5899C223.001 42.1345 223.006 43.0887 222.993 43.7109L222.969 44.8424L213.541 44.8541L204.114 44.8659V45.2853C204.114 46.5612 204.425 48.0142 204.963 49.2506C205.427 50.317 206.226 51.4811 206.881 52.0446C208.222 53.1999 209.864 53.8914 211.66 54.0577C212.326 54.1194 214.024 54.0543 214.783 53.938C216.949 53.6063 219.008 52.7604 220.67 51.5185C220.807 51.4149 220.946 51.3137 221.087 51.215C221.135 51.1847 221.147 51.5664 221.145 53.1714L221.144 55.1652L220.698 55.4397C218.817 56.5985 216.662 57.3428 214.381 57.6212C213.7 57.7043 211.202 57.7421 210.387 57.6808ZM218.592 40.8645C218.592 38.7271 217.688 36.353 216.408 35.1304C215.496 34.258 214.392 33.7248 213.08 33.5225C212.459 33.4267 211.151 33.4637 210.496 33.5951C209.113 33.8739 207.969 34.4797 206.97 35.4621C205.92 36.4961 205.132 37.7523 204.637 39.183C204.459 39.6978 204.251 40.5425 204.186 41.0127L204.155 41.2364H218.592L218.592 40.8645ZM90.7113 57.0154C90.7223 56.9826 93.9238 48.6045 97.8253 38.3967L104.919 19.8368H109.478L109.667 20.3196C110.245 21.7962 123.869 57.0338 123.869 57.0523C123.869 57.0641 122.777 57.0741 121.444 57.0737L119.019 57.0733L117.055 51.8653L115.092 46.6569H99.28L99.2109 46.8336C99.173 46.931 98.3344 49.2745 97.3466 52.0412L95.5513 57.0725L93.121 57.0733C91.1977 57.0737 90.6953 57.062 90.7113 57.0154ZM113.649 42.6823C113.649 42.6739 112.328 39.1054 110.712 34.7517C107.691 26.607 107.522 26.1171 107.283 24.8093C107.171 24.1963 107.115 24.1796 107.048 24.7388C107.001 25.1384 106.795 26.0335 106.636 26.5298C106.557 26.7762 105.197 30.4963 103.613 34.7975C102.028 39.0982 100.732 42.6349 100.732 42.6571C100.732 42.6794 103.638 42.6974 107.19 42.6974C110.743 42.6974 113.649 42.6903 113.649 42.6823ZM125.335 56.3957V55.7177L133.213 44.9301L141.089 34.1426L133.958 34.1186L126.826 34.0951L126.813 32.2924L126.801 30.4892H147.431V31.7071L139.554 42.5534C135.221 48.5192 131.676 53.4103 131.676 53.4224C131.676 53.4346 135.178 53.4447 139.459 53.4447H147.242V57.0741H125.335V56.3957ZM183.138 57.0426C183.121 57.0254 183.106 51.0437 183.106 43.7504V30.4892H187.412V33.2231C187.412 34.727 187.43 35.9571 187.453 35.9571C187.475 35.9571 187.58 35.711 187.685 35.41C188.17 34.0317 189.009 32.7437 190.09 31.7197C191.064 30.7978 192.178 30.2461 193.492 30.0349C193.861 29.9762 194.173 29.9644 194.911 29.9837C195.838 30.0076 196.323 30.0752 196.887 30.2587L197.064 30.3166V34.7689L196.555 34.5154C195.657 34.0674 194.77 33.8898 193.704 33.9452C193.011 33.9809 192.556 34.0699 192.001 34.2769C190.875 34.6913 189.921 35.4682 189.288 36.4844C188.352 37.9722 187.685 39.8846 187.488 41.6424C187.452 41.9577 187.432 44.5267 187.423 49.5911L187.411 57.0741H185.29C184.124 57.0741 183.155 57.0599 183.138 57.0426ZM0 56.9494C0 56.9327 4.74052 48.7346 10.5346 38.7313L21.0692 20.5434L33.3459 10.2798C40.0979 4.63474 45.6408 0.00862667 45.6631 0.000230049C45.685 -0.00816657 45.5965 0.214344 45.4655 0.494791C45.3348 0.775658 39.3359 13.5939 32.1348 28.9803L19.0413 56.9557L9.52066 56.9679C4.28455 56.9746 0 56.9662 0 56.9494Z" fill="#0089D6"/>
</svg>
