<svg width="49" height="49" viewBox="0 0 49 49" fill="none" xmlns="http://www.w3.org/2000/svg">
<path d="M32.75 29.003C33.2804 29.003 33.7891 28.7923 34.1642 28.4172C34.5393 28.0422 34.75 27.5335 34.75 27.003V16.003C34.75 15.4726 34.5393 14.9639 34.1642 14.5888C33.7891 14.2137 33.2804 14.003 32.75 14.003H22.21C22.56 14.613 22.75 15.303 22.75 16.003H32.75V27.003H23.75V29.003M27.75 19.003V21.003H21.75V34.003H19.75V28.003H17.75V34.003H15.75V26.003H14.25V21.003C14.25 20.4726 14.4607 19.9639 14.8358 19.5888C15.2109 19.2137 15.7196 19.003 16.25 19.003H27.75ZM20.75 16.003C20.75 16.5335 20.5393 17.0422 20.1642 17.4172C19.7891 17.7923 19.2804 18.003 18.75 18.003C18.2196 18.003 17.7109 17.7923 17.3358 17.4172C16.9607 17.0422 16.75 16.5335 16.75 16.003C16.75 15.4726 16.9607 14.9639 17.3358 14.5888C17.7109 14.2137 18.2196 14.003 18.75 14.003C19.2804 14.003 19.7891 14.2137 20.1642 14.5888C20.5393 14.9639 20.75 15.4726 20.75 16.003Z" fill="#FF5805"/>
<rect x="1" y="0.503021" width="47" height="47" rx="23.5" stroke="#FF5805" stroke-opacity="0.2"/>
</svg>
