<svg width="49" height="49" viewBox="0 0 49 49" fill="none" xmlns="http://www.w3.org/2000/svg">
<path d="M24.5 32.003C26.6217 32.003 28.6566 31.1602 30.1569 29.6599C31.6571 28.1596 32.5 26.1248 32.5 24.003C32.5 21.8813 31.6571 19.8465 30.1569 18.3462C28.6566 16.8459 26.6217 16.003 24.5 16.003C22.3783 16.003 20.3434 16.8459 18.8431 18.3462C17.3429 19.8465 16.5 21.8813 16.5 24.003C16.5 26.1248 17.3429 28.1596 18.8431 29.6599C20.3434 31.1602 22.3783 32.003 24.5 32.003ZM24.5 14.003C25.8132 14.003 27.1136 14.2617 28.3268 14.7642C29.5401 15.2668 30.6425 16.0034 31.5711 16.932C32.4997 17.8605 33.2362 18.9629 33.7388 20.1762C34.2413 21.3894 34.5 22.6898 34.5 24.003C34.5 26.6552 33.4464 29.1987 31.5711 31.0741C29.6957 32.9495 27.1522 34.003 24.5 34.003C18.97 34.003 14.5 29.503 14.5 24.003C14.5 21.3509 15.5536 18.8073 17.4289 16.932C19.3043 15.0566 21.8478 14.003 24.5 14.003ZM25 19.003V24.253L29.5 26.923L28.75 28.153L23.5 25.003V19.003H25Z" fill="#FF5805"/>
<rect x="1" y="0.503021" width="47" height="47" rx="23.5" stroke="#FF5805" stroke-opacity="0.2"/>
</svg>
