<svg width="10" height="10" viewBox="0 0 10 10" fill="none" xmlns="http://www.w3.org/2000/svg">
<path d="M5 8.2C4.15131 8.2 3.33737 7.86286 2.73726 7.26274C2.13714 6.66263 1.8 5.84869 1.8 5C1.8 4.15131 2.13714 3.33737 2.73726 2.73726C3.33737 2.13714 4.15131 1.8 5 1.8C5.84869 1.8 6.66263 2.13714 7.26274 2.73726C7.86286 3.33737 8.2 4.15131 8.2 5C8.2 5.84869 7.86286 6.66263 7.26274 7.26274C6.66263 7.86286 5.84869 8.2 5 8.2ZM5 1C4.47471 1 3.95457 1.10346 3.46927 1.30448C2.98396 1.5055 2.54301 1.80014 2.17157 2.17157C1.42143 2.92172 1 3.93913 1 5C1 6.06087 1.42143 7.07828 2.17157 7.82843C2.54301 8.19986 2.98396 8.4945 3.46927 8.69552C3.95457 8.89654 4.47471 9 5 9C6.06087 9 7.07828 8.57857 7.82843 7.82843C8.57857 7.07828 9 6.06087 9 5C9 4.47471 8.89654 3.95457 8.69552 3.46927C8.4945 2.98396 8.19986 2.54301 7.82843 2.17157C7.45699 1.80014 7.01604 1.5055 6.53073 1.30448C6.04543 1.10346 5.52529 1 5 1Z" fill="#6814C9"/>
<path d="M5 8.2C4.15131 8.2 3.33737 7.86286 2.73726 7.26274C2.13714 6.66263 1.8 5.84869 1.8 5C1.8 4.15131 2.13714 3.33737 2.73726 2.73726C3.33737 2.13714 4.15131 1.8 5 1.8C5.84869 1.8 6.66263 2.13714 7.26274 2.73726C7.86286 3.33737 8.2 4.15131 8.2 5C8.2 5.84869 7.86286 6.66263 7.26274 7.26274C6.66263 7.86286 5.84869 8.2 5 8.2M5 1C4.47471 1 3.95457 1.10346 3.46927 1.30448C2.98396 1.5055 2.54301 1.80014 2.17157 2.17157C1.42143 2.92172 1 3.93913 1 5C1 6.06087 1.42143 7.07828 2.17157 7.82843C2.54301 8.19986 2.98396 8.4945 3.46927 8.69552C3.95457 8.89654 4.47471 9 5 9C6.06087 9 7.07828 8.57857 7.82843 7.82843C8.57857 7.07828 9 6.06087 9 5C9 4.47471 8.89654 3.95457 8.69552 3.46927C8.4945 2.98396 8.19986 2.54301 7.82843 2.17157C7.45699 1.80014 7.01604 1.5055 6.53073 1.30448C6.04543 1.10346 5.52529 1 5 1V1Z" stroke="#6814C9"/>
</svg>
