<svg width="62" height="20" viewBox="0 0 62 20" fill="none" xmlns="http://www.w3.org/2000/svg">
<path d="M15.0157 7.06307H7.88708V9.17496H12.936C12.688 12.1454 10.2136 13.3987 7.88708 13.3987C4.89991 13.3987 2.30984 11.0555 2.30984 7.77141C2.30984 4.56959 4.78543 2.11189 7.88708 2.11189C10.2792 2.11189 11.6994 3.64661 11.6994 3.64661L13.1841 2.11189C13.1841 2.11189 11.2868 0 7.82149 0C3.41527 0 0 3.73008 0 7.73921C0 11.6827 3.21732 15.5273 7.93716 15.5273C12.0953 15.5273 15.1314 12.6725 15.1314 8.46424C15.1314 7.57465 15.0157 7.06307 15.0157 7.06307Z" fill="#4285F4"/>
<path d="M20.841 5.52783C17.9206 5.52783 15.8242 7.82098 15.8242 10.4778C15.8242 13.1836 17.8538 15.5113 20.8732 15.5113C23.6123 15.5113 25.8399 13.4161 25.8399 10.5446C25.8578 7.22712 23.251 5.52783 20.841 5.52783ZM20.8744 7.49185C22.3101 7.49185 23.6791 8.64736 23.6791 10.5279C23.6791 12.3596 22.3256 13.564 20.8744 13.564C19.2741 13.564 18.0196 12.2928 18.0196 10.5279C18.0196 8.77854 19.2574 7.49185 20.8744 7.49185Z" fill="#EA4335"/>
<path d="M31.7653 5.52783C28.845 5.52783 26.7486 7.82098 26.7486 10.4778C26.7486 13.1836 28.7782 15.5113 31.7975 15.5113C34.5367 15.5113 36.7642 13.4161 36.7642 10.5446C36.7654 7.22712 34.1575 5.52783 31.7653 5.52783ZM31.7987 7.49185C33.2345 7.49185 34.6034 8.64736 34.6034 10.5279C34.6034 12.3596 33.25 13.564 31.7987 13.564C30.1984 13.564 28.9439 12.2928 28.9439 10.5279C28.9272 8.77854 30.1805 7.49185 31.7987 7.49185Z" fill="#FBBC05"/>
<path d="M42.4583 5.52783C39.7681 5.52783 37.6729 7.87106 37.6729 10.5112C37.6729 13.5139 40.1151 15.5113 42.425 15.5113C43.844 15.5113 44.6036 14.9508 45.1641 14.2902V15.28C45.1641 16.9959 44.1242 18.0358 42.5406 18.0358C41.0226 18.0358 40.2475 16.897 39.9827 16.2542L38.0688 17.0627C38.745 18.4985 40.1151 19.9998 42.5573 19.9998C45.2309 19.9998 47.2605 18.3172 47.2605 14.8018V5.82476H45.1653V6.66665C44.5201 5.98932 43.6294 5.52783 42.4583 5.52783ZM42.6563 7.49185C43.9764 7.49185 45.3298 8.61398 45.3298 10.5279C45.3298 12.4752 43.9764 13.5473 42.6396 13.5473C41.2039 13.5473 39.8838 12.3918 39.8838 10.5446C39.8671 8.62948 41.2539 7.49185 42.6563 7.49185Z" fill="#4285F4"/>
<path d="M56.5499 5.52783C54.0254 5.52783 51.8968 7.54074 51.8968 10.5112C51.8968 13.6629 54.2734 15.528 56.7979 15.528C58.9098 15.528 60.2132 14.3725 60.9728 13.3338L59.2401 12.1783C58.7941 12.8711 58.0357 13.5485 56.7979 13.5485C55.3955 13.5485 54.7516 12.7734 54.3557 12.0304L61.0551 9.25672L60.708 8.44822C60.0653 6.84791 58.5473 5.52783 56.5499 5.52783ZM56.6488 7.44177C57.5563 7.44177 58.2169 7.91995 58.4972 8.51381L54.0254 10.3788C53.8274 8.9276 55.1976 7.44177 56.6488 7.44177Z" fill="#EA4335"/>
<path d="M50.9059 0.511719H48.7117V15.2305H50.9059V0.511719Z" fill="#34A853"/>
</svg>
