<svg width="242" height="199" viewBox="0 0 242 199" fill="none" xmlns="http://www.w3.org/2000/svg">
<path d="M129.525 76.5018C129.398 76.4988 98.6804 76.563 98.6197 76.563C94.3109 76.563 92.646 79.0597 92.646 79.0597V80.4055H134.645V79.0597C132.748 77.7731 131.021 76.4642 129.525 76.5018Z" fill="#DEE8F5"/>
<path d="M123.673 79.3907C123.673 79.3907 125.889 76.2095 129.525 76.5013C130.511 76.5381 131.478 76.7853 132.361 77.2265C133.244 77.6677 134.023 78.2925 134.645 79.0593V80.4051H111.782V79.0593C111.782 79.0593 113.447 76.5626 117.759 76.5626C122.07 76.5626 123.673 79.3907 123.673 79.3907Z" fill="#C1D8ED"/>
<path d="M111.783 79.0596H92.646V80.4049H111.783V79.0596Z" fill="#C1D8ED"/>
<path d="M43.3687 121.48L23.2664 197.905L26.1323 198.659L46.2346 122.234L43.3687 121.48Z" fill="#C1D8ED"/>
<path d="M78.9921 121.627L76.0645 122.086L88.0474 198.512L90.975 198.053L78.9921 121.627Z" fill="#C1D8ED"/>
<path d="M40.6785 48.5474C40.6785 48.5474 16.1985 47.001 16.1985 68.3898C16.1985 89.7785 19.8039 119.669 37.8441 123.019C55.8842 126.369 82.5325 125.36 88.722 124.31C96.3236 123.021 99.6371 105.388 89.5122 104.208C60.7777 100.858 74.6953 50.8672 40.6785 48.5474Z" fill="#C1D8ED"/>
<path d="M87.4761 183.493L86.5447 195.573L96.8858 196.37L97.8173 184.29L87.4761 183.493Z" fill="#E98862"/>
<path d="M110.026 198.192C110.292 198.191 110.556 198.137 110.802 198.034C111.047 197.931 111.27 197.781 111.458 197.591C111.645 197.402 111.793 197.178 111.894 196.931C111.995 196.685 112.046 196.421 112.045 196.155C112.045 196.105 112.045 196.056 112.039 196.006C112.009 195.621 111.869 195.252 111.637 194.943C111.404 194.635 111.088 194.399 110.726 194.263L98.6541 190.22C98.4202 190.142 98.1724 190.117 97.9275 190.144C97.6827 190.171 97.4467 190.251 97.2356 190.378C95.5758 191.529 93.5906 192.118 91.5716 192.057C89.999 191.945 88.4895 191.393 87.2154 190.465C87.1034 190.373 86.9675 190.315 86.8237 190.297C86.6799 190.28 86.5341 190.303 86.4032 190.365C86.2723 190.428 86.1618 190.526 86.0845 190.648C86.0073 190.771 85.9664 190.913 85.9668 191.058V196.961C85.9668 197.311 86.1061 197.648 86.3542 197.896C86.6022 198.144 86.9387 198.283 87.2895 198.283H87.2949L110.026 198.192Z" fill="#C1D8ED"/>
<path d="M138.902 183.03L128.674 184.751L130.706 196.831L140.934 195.111L138.902 183.03Z" fill="#E98862"/>
<path d="M144.187 185.674L121.418 98.0647C120.909 96.1071 119.765 94.3738 118.165 93.1363C116.565 91.8988 114.6 91.2272 112.577 91.2267H62.6678V91.2588H34.7087V99.825C34.7087 102.295 35.1952 104.741 36.1405 107.024C37.0858 109.306 38.4713 111.38 40.2181 113.126C41.9648 114.873 44.0385 116.259 46.3207 117.204C48.603 118.15 51.0491 118.636 53.5193 118.636H67.1559V118.69H90.9618L84.4068 188.388L102.601 190.099L108.939 122.704L126.502 190.272L144.187 185.674Z" fill="#262626"/>
<path d="M106.163 49.386C106.163 49.386 106.237 43.4538 110.478 43.7625C113.152 43.9571 125.863 43.3674 126.052 44.5251C126.52 47.3897 114.894 48.09 113.839 50.7591L106.163 49.386Z" fill="#E98862"/>
<path d="M108.976 43.9528C108.976 43.9528 114.878 42.0266 116.328 42.3723C117.613 42.6781 114.936 44.7682 114.936 44.7682L108.976 43.9528Z" fill="#E98862"/>
<path d="M93.9734 75.4158L115.03 50.9016L105.955 45.7987L89.0942 64.7683L75.9071 41.1644C74.6595 37.434 71.8176 34.9344 66.0192 34.6845C65.7081 34.6746 65.2093 34.6598 64.5672 34.6499C64.4388 37.3663 47.6117 37.3565 47.2561 34.5857C42.5048 34.5906 38.603 36.0526 36.3508 38.3047C28.5719 46.0836 38.1189 59.3399 38.1189 69.7117C38.1189 80.0836 33.4269 84.7361 33.7726 90.0603C34.3159 98.427 74.9786 96.4514 77.048 91.6951C78.4358 88.5085 77.091 86.1141 76.0325 80.416H93.9729L93.9734 75.4158ZM75.0433 67.7361C75.0635 65.9912 75.1983 64.1653 75.3836 62.3072L79.4829 69.6465H75.0447C75.0383 69.0292 75.0359 68.398 75.0447 67.7366L75.0433 67.7361Z" fill="#367CFF"/>
<path d="M64.5704 34.6504C64.442 37.3668 62.9603 41.3625 58.4066 41.6588C52.3267 42.0633 47.6149 37.357 47.2593 34.5862H47.279C53.2527 34.5862 61.0761 34.5961 64.5704 34.6504Z" fill="#E98862"/>
<path d="M152.652 198.192C152.918 198.19 153.182 198.137 153.427 198.034C153.673 197.93 153.896 197.78 154.083 197.591C154.271 197.401 154.419 197.177 154.52 196.93C154.621 196.684 154.672 196.42 154.671 196.153C154.671 196.104 154.671 196.055 154.665 196.005C154.634 195.62 154.495 195.251 154.262 194.942C154.029 194.633 153.714 194.398 153.351 194.262L141.28 190.219C141.046 190.141 140.798 190.115 140.553 190.143C140.308 190.17 140.072 190.25 139.861 190.377C138.201 191.528 136.216 192.117 134.197 192.056C132.624 191.944 131.115 191.392 129.84 190.464C129.728 190.372 129.593 190.314 129.449 190.297C129.305 190.279 129.16 190.303 129.029 190.365C128.898 190.427 128.788 190.525 128.71 190.647C128.633 190.77 128.592 190.912 128.592 191.056V196.959C128.592 197.31 128.731 197.646 128.979 197.895C129.226 198.143 129.562 198.282 129.913 198.283H129.918L152.652 198.192Z" fill="#C1D8ED"/>
<path d="M11.051 85.203H6.41284V198.284H11.051V85.203Z" fill="#DEE8F5"/>
<path d="M234.774 85.203H230.136V198.284H234.774V85.203Z" fill="#C1D8ED"/>
<path d="M234.774 83.7852H192.943V190.552H234.774V83.7852Z" fill="#C1D8ED"/>
<path d="M189.23 182.82H184.592V198.284H189.23V182.82Z" fill="#C1D8ED"/>
<path d="M241.186 80.533H0V86.9107H241.186V80.533Z" fill="#DEE8F5"/>
<path d="M195.262 85.203H190.624V198.284H195.262V85.203Z" fill="#DEE8F5"/>
<path d="M149.718 85.203H145.08V198.284H149.718V85.203Z" fill="#DEE8F5"/>
<path d="M192.943 86.9189H147.399V190.552H192.943V86.9189Z" fill="#DEE8F5"/>
<path d="M147.079 51.9878L141.082 77.1628C140.989 77.5544 140.986 77.9621 141.073 78.3552C141.159 78.7483 141.334 79.1166 141.584 79.4326C141.833 79.7485 142.151 80.0039 142.513 80.1795C142.876 80.3552 143.273 80.4465 143.676 80.4467H179.031C179.615 80.4466 180.183 80.2547 180.647 79.9006C181.112 79.5464 181.447 79.0496 181.602 78.4864L188.512 53.3119C188.621 52.9162 188.636 52.5008 188.558 52.098C188.48 51.6952 188.31 51.3159 188.061 50.9895C187.812 50.6632 187.491 50.3988 187.124 50.2166C186.756 50.0345 186.351 49.9397 185.941 49.9396H149.673C149.073 49.9396 148.491 50.1418 148.02 50.5134C147.55 50.8851 147.218 51.4045 147.079 51.9878Z" fill="#9EBCEA"/>
<path d="M128.496 80.4463H171.227C171.643 80.4463 172.041 80.2812 172.335 79.9874C172.629 79.6936 172.794 79.2951 172.794 78.8796C172.794 78.4641 172.629 78.0656 172.335 77.7718C172.041 77.478 171.643 77.313 171.227 77.313H128.496C128.29 77.313 128.086 77.3535 127.896 77.4322C127.706 77.511 127.533 77.6264 127.388 77.7718C127.242 77.9173 127.127 78.09 127.048 78.2801C126.969 78.4702 126.929 78.6739 126.929 78.8796C126.929 79.0854 126.969 79.2891 127.048 79.4792C127.127 79.6692 127.242 79.8419 127.388 79.9874C127.533 80.1329 127.706 80.2483 127.896 80.327C128.086 80.4058 128.29 80.4463 128.496 80.4463Z" fill="#9EBCEA"/>
<path d="M166.245 69.1259C168.554 69.1259 170.426 67.2538 170.426 64.9445C170.426 62.6352 168.554 60.7632 166.245 60.7632C163.935 60.7632 162.063 62.6352 162.063 64.9445C162.063 67.2538 163.935 69.1259 166.245 69.1259Z" fill="white"/>
<path d="M101.267 77.8291C100.304 78.5848 96.1352 78.8219 93.9719 78.8959V70.88C95.0733 70.2873 96.4464 69.5218 97.4687 68.8698C98.8862 67.961 99.5283 67.6993 99.8839 67.7981H99.8888C99.973 67.8224 100.048 67.8704 100.106 67.9363C100.154 67.9895 100.191 68.0516 100.215 68.1191C100.447 68.7463 99.385 69.6897 98.7973 70.1539L98.7924 70.1589C98.58 70.3268 98.4269 70.4355 98.4269 70.4355L99.6814 71.0133L99.6863 71.0183L100.783 71.527L100.798 71.5319L101.39 71.8036C101.39 71.8036 101.494 72.2382 101.608 72.8753V72.8803C101.873 74.4064 102.194 77.1031 101.267 77.8291Z" fill="#E98862"/>
<path d="M108.382 77.8401L105.833 76.9709L98.3253 69.7022L97.3064 68.7119L95.4854 66.9507L97.1903 65.1934L99.0276 66.9729L100.049 67.9592L107.534 75.2101L108.382 77.8401Z" fill="#0CBC8B"/>
<path d="M100.05 67.9595L98.3253 69.7024L97.3064 68.7122L99.0276 66.9731L100.05 67.9595Z" fill="white"/>
<path d="M99.1834 70.2766C99.8296 70.2883 100.474 70.3417 101.114 70.4366C101.772 70.5222 102.421 70.6684 103.053 70.8732C103.404 70.985 103.744 71.1295 104.068 71.3049C104.249 71.4047 104.422 71.5188 104.586 71.6462L104.949 71.9603C105.427 72.3909 105.863 72.8656 106.252 73.3783C106.358 73.5194 106.411 73.6935 106.401 73.8699C106.391 74.0462 106.319 74.2133 106.197 74.3416C106.076 74.4699 105.913 74.5511 105.738 74.5709C105.562 74.5906 105.385 74.5477 105.239 74.4496L105.204 74.4263L103.772 73.4662L103.413 73.2306C103.33 73.1833 103.244 73.141 103.156 73.1042C102.936 73.0151 102.708 72.9459 102.476 72.8972C101.941 72.7855 101.4 72.7078 100.855 72.6646C100.298 72.6212 99.704 72.5881 99.1671 72.5787H99.1419C98.9908 72.576 98.8417 72.5436 98.7031 72.4833C98.5645 72.423 98.4391 72.336 98.3342 72.2273C98.2292 72.1186 98.1466 71.9902 98.0913 71.8496C98.0359 71.7089 98.0087 71.5588 98.0114 71.4076C98.0141 71.2565 98.0465 71.1074 98.1068 70.9688C98.167 70.8302 98.254 70.7048 98.3628 70.5999C98.4715 70.4949 98.5999 70.4123 98.7405 70.357C98.8812 70.3016 99.0313 70.2744 99.1824 70.2771L99.1834 70.2766Z" fill="#E98862"/>
<path d="M68.8545 7.32922C68.8545 7.32922 72.5983 20.743 74.7013 27.7035C74.8009 28.0333 74.822 28.3818 74.7627 28.7212C74.7034 29.0606 74.5655 29.3813 74.36 29.6578C74.1544 29.9343 73.887 30.1588 73.5791 30.3134C73.2712 30.4679 72.9314 30.5483 72.5869 30.5479H59.4492C58.8817 30.5478 58.336 30.3292 57.9254 29.9376C57.5147 29.5459 57.2705 29.0112 57.2435 28.4444L56.3579 9.77155L68.8545 7.32922Z" fill="#0F1011"/>
<path d="M48.7202 37.1678C48.7202 37.1678 52.5415 35.1463 51.6979 24.7458L59.5899 23.2898C59.5899 23.2898 58.695 32.6131 62.6842 35.577L48.7202 37.1678Z" fill="#E98862"/>
<g opacity="0.15">
<path d="M61.0691 33.6264L54.5186 28.6054L59.6669 28.556C59.8142 30.3188 60.2897 32.0385 61.0691 33.6264Z" fill="black"/>
</g>
<path d="M47.2242 20.7097C47.7674 23.8652 49.4867 26.8548 52.2693 27.8762C55.3019 29.0833 58.5839 29.5297 61.8287 29.1766C70.4675 28.4762 68.7764 8.83343 64.6785 5.01461C60.5807 1.19579 48.5429 3.60107 47.073 9.98075C46.3129 13.2805 46.707 17.7083 47.2242 20.7097Z" fill="#E98862"/>
<path d="M59.5838 18.2897C59.9791 18.2897 60.2995 17.9693 60.2995 17.5741C60.2995 17.1788 59.9791 16.8584 59.5838 16.8584C59.1886 16.8584 58.8682 17.1788 58.8682 17.5741C58.8682 17.9693 59.1886 18.2897 59.5838 18.2897Z" fill="#0F1011"/>
<path d="M65.2301 17.8319C65.6253 17.8319 65.9457 17.5115 65.9457 17.1163C65.9457 16.721 65.6253 16.4006 65.2301 16.4006C64.8348 16.4006 64.5144 16.721 64.5144 17.1163C64.5144 17.5115 64.8348 17.8319 65.2301 17.8319Z" fill="#0F1011"/>
<path d="M66.4712 15.5925H66.4673L64.5702 15.5663C64.481 15.5652 64.3959 15.5287 64.3336 15.4648C64.2713 15.4009 64.2369 15.3149 64.2381 15.2257C64.2392 15.1365 64.2757 15.0514 64.3395 14.9891C64.4034 14.9268 64.4894 14.8925 64.5786 14.8936L66.4747 14.9193C66.5639 14.9199 66.6492 14.9559 66.7119 15.0193C66.7745 15.0828 66.8094 15.1686 66.8088 15.2578C66.8082 15.347 66.7722 15.4324 66.7087 15.495C66.6452 15.5577 66.5594 15.5925 66.4702 15.592L66.4712 15.5925Z" fill="#0F1011"/>
<path d="M58.0406 16.2762C57.9583 16.276 57.879 16.2457 57.8176 16.191C57.7562 16.1362 57.717 16.0609 57.7074 15.9792C57.6978 15.8975 57.7184 15.8151 57.7654 15.7476C57.8125 15.6801 57.8826 15.6322 57.9625 15.6129L59.8314 15.165C59.8748 15.1535 59.9199 15.1508 59.9643 15.1571C60.0087 15.1634 60.0513 15.1784 60.0898 15.2014C60.1283 15.2244 60.1618 15.2548 60.1883 15.2909C60.2149 15.327 60.2339 15.368 60.2444 15.4116C60.2549 15.4552 60.2565 15.5004 60.2493 15.5446C60.242 15.5888 60.226 15.6311 60.2022 15.6691C60.1783 15.707 60.1471 15.7398 60.1104 15.7656C60.0738 15.7913 60.0323 15.8094 59.9885 15.8189L58.1196 16.2669C58.0937 16.2731 58.0672 16.2763 58.0406 16.2762Z" fill="#0F1011"/>
<path d="M59.9099 23.2104C59.9099 23.2104 62.5513 23.4915 64.4044 22.8464C64.4044 22.8464 64.3881 24.5859 62.2974 24.7558C60.2067 24.9257 59.9099 23.2104 59.9099 23.2104Z" fill="white"/>
<g opacity="0.15">
<path d="M62.7574 21.5471C62.6982 21.547 62.6411 21.5257 62.5964 21.4871C62.5516 21.4485 62.5222 21.3951 62.5134 21.3366C62.5047 21.2781 62.5173 21.2185 62.5488 21.1685C62.5803 21.1184 62.6287 21.0814 62.6852 21.0641L64.1408 20.6195L63.1243 18.3516C63.1099 18.3218 63.1015 18.2895 63.0998 18.2564C63.098 18.2234 63.103 18.1904 63.1143 18.1593C63.1255 18.1282 63.143 18.0997 63.1655 18.0754C63.188 18.0512 63.2152 18.0317 63.2453 18.0182C63.2755 18.0047 63.3081 17.9973 63.3412 17.9966C63.3743 17.9959 63.4071 18.0019 63.4379 18.0141C63.4686 18.0264 63.4965 18.0447 63.52 18.068C63.5436 18.0912 63.5622 18.119 63.5748 18.1496L64.8199 20.9282L62.83 21.5382C62.8063 21.5445 62.7819 21.5475 62.7574 21.5471Z" fill="black"/>
</g>
<path d="M69.3049 8.93707C69.3049 8.93707 68.04 -1.29305 51.648 1.21941C47.5615 1.84567 41.7701 5.03626 40.8317 15.4931C40.403 20.2898 38.7494 24.8124 37.488 27.6751C37.3387 28.0112 37.2757 28.3792 37.3047 28.7458C37.3338 29.1124 37.4539 29.4659 37.6542 29.7743C37.8545 30.0827 38.1287 30.3362 38.4518 30.5118C38.775 30.6874 39.1368 30.7795 39.5046 30.7797L51.0272 30.7837C51.6119 30.7846 52.173 30.5533 52.5872 30.1406C53.0014 29.7279 53.2348 29.1676 53.2359 28.5829C53.2359 28.5503 53.2359 28.5177 53.2359 28.4841C53.153 26.5228 53.0878 23.2023 53.1994 18.127C53.7985 15.2303 52.2027 13.1881 54.5191 13.8538C63.1198 16.3218 68.6589 9.10252 69.3049 8.93707Z" fill="#0F1011"/>
<path d="M55.9677 20.6537C55.9999 21.0508 55.9536 21.4504 55.8314 21.8296C55.7091 22.2088 55.5134 22.5603 55.2554 22.8639C54.9973 23.1675 54.682 23.4172 54.3274 23.599C53.9729 23.7807 53.5859 23.8908 53.1888 23.923C52.7917 23.9552 52.3921 23.9089 52.0129 23.7867C51.6336 23.6644 51.2822 23.4687 50.9786 23.2107C50.3655 22.6895 49.9845 21.9461 49.9195 21.1441C49.8425 20.3568 50.0812 19.5712 50.5833 18.9599C51.0854 18.3487 51.8096 17.9618 52.5969 17.8844C52.6305 17.8814 52.6645 17.8784 52.6981 17.8765C54.8609 17.8068 55.8319 18.9853 55.9677 20.6537Z" fill="#E98862"/>
</svg>
