<svg width="586" height="483" viewBox="0 0 586 483" fill="none" xmlns="http://www.w3.org/2000/svg">
<g opacity="0.4">
<path d="M569.602 351.823C581.916 290.02 577.469 232.902 545.915 178.529C523.435 139.788 484.386 107.429 439.72 106.576C397.589 105.771 359.665 132.26 318.041 138.957C249.567 149.975 178.795 106.662 112.293 126.461C76.7046 137.058 47.766 165.254 31.421 198.749C15.0759 232.243 10.449 270.582 13.0199 307.754C17.5917 373.822 46.5817 439.522 96.1061 482.267H499.503C533.388 442.594 561.635 391.797 569.602 351.823Z" fill="#F0E8FA"/>
</g>
<path d="M440.456 73.9382C440.456 69.0834 436.605 65.1462 431.857 65.1462H145.623C140.875 65.1462 137.024 69.0834 137.024 73.9382V81.1471H440.46V73.9382H440.456Z" fill="white" stroke="#6814C9"/>
<path d="M137.021 81.1471V267.848C137.021 272.703 140.871 276.64 145.62 276.64H431.857C436.605 276.64 440.456 272.703 440.456 267.848V81.1471H137.021Z" fill="white" stroke="#6814C9"/>
<path d="M152.016 76.2754C153.701 76.1201 154.944 74.5973 154.792 72.8742C154.64 71.1511 153.151 69.8802 151.466 70.0355C149.78 70.1909 148.537 71.7137 148.689 73.4368C148.841 75.1599 150.331 76.4308 152.016 76.2754Z" fill="white" stroke="#6814C9"/>
<path d="M163.97 76.2755C165.655 76.1202 166.898 74.5974 166.746 72.8743C166.594 71.1512 165.105 69.8803 163.42 70.0356C161.734 70.191 160.491 71.7138 160.643 73.4369C160.795 75.16 162.284 76.4309 163.97 76.2755Z" fill="white" stroke="#6814C9"/>
<path d="M175.924 76.2756C177.609 76.1202 178.852 74.5975 178.7 72.8744C178.548 71.1512 177.059 69.8803 175.374 70.0357C173.688 70.191 172.445 71.7138 172.597 73.4369C172.749 75.1601 174.238 76.4309 175.924 76.2756Z" fill="white" stroke="#6814C9"/>
<path opacity="0.1" d="M408.833 101.503H168.648V248.921H408.833V101.503Z" fill="#6814C9"/>
<path d="M332.396 276.102H253.981C251.083 248.417 250.34 223.598 252.933 207.097C253.639 202.603 254.588 198.73 255.813 195.582L288.83 188.708L327.221 192.224C333.676 209.297 334.688 239.99 332.396 276.102Z" fill="#FF5805"/>
<path d="M291.729 196.387H290.809V228.351H291.729V196.387Z" fill="#1B1B43"/>
<path opacity="0.2" d="M327.221 192.224C327.221 192.224 296.308 214.392 252.936 207.097C253.643 202.603 254.592 198.73 255.816 195.582L288.834 188.708L327.221 192.224Z" fill="#1B1B43"/>
<path d="M273.265 66.9362C273.265 66.9362 258.373 86.3516 261.959 102.849L314.271 100.615C314.271 100.615 314.72 68.3088 303.292 65.5599L273.265 66.9362Z" fill="#1B1B43"/>
<path d="M318.317 98.6935H317.397C317.397 77.5295 306.632 67.8086 306.521 67.7108L307.121 67.0001C307.235 67.0979 318.317 77.1045 318.317 98.6935Z" fill="#1B1B43"/>
<path d="M260.528 177.239C260.465 179.45 260.039 181.571 259.314 183.568C257.42 188.814 253.448 193.07 248.324 195.157C247.092 195.676 245.786 196.052 244.426 196.286C241.961 196.718 239.092 196.963 235.72 196.963C218.801 196.963 206.516 183.823 205.064 179.818C203.611 175.806 207.708 177.231 207.708 177.231C209.201 173.824 212.53 176.569 212.53 176.569C213.534 173.016 216.679 176.336 216.679 176.336C216.679 176.336 216.789 174.388 218.584 174.501C219.687 174.576 223.299 176.825 225.91 178.536C227.253 179.409 228.798 179.86 230.361 179.86C230.986 179.86 231.611 179.792 232.226 179.642C235.437 178.89 237.901 176.246 238.497 172.941L243.561 144.718H255.552L259.395 149.757C260.907 155.973 260.815 168.702 260.528 177.239Z" fill="#FFBC96"/>
<path opacity="0.4" d="M259.314 183.568C257.42 188.814 253.448 193.07 248.324 195.158C247.901 194.112 247.662 192.969 247.662 191.762C247.662 186.922 251.506 182.992 256.25 182.992C257.328 182.992 258.358 183.199 259.314 183.568Z" fill="#FE5B52"/>
<path d="M286.44 90.6498L261.782 95.7866C252.716 97.6744 245.614 104.887 243.697 114.142L236.992 146.553L259.403 149.761L286.44 90.6498Z" fill="#6814C9"/>
<path d="M295.031 90.6498L319.689 95.7866C328.755 97.6744 335.857 104.887 337.773 114.142L340.819 137.16L319.082 141.055L295.031 90.6498Z" fill="#6814C9"/>
<path d="M259.403 149.761C259.403 149.761 258.207 186.723 255.816 195.582C255.816 195.582 289.279 207.496 327.225 192.221L324.238 124.099L295.031 90.6498H286.443L257.313 129.293L259.403 149.761Z" fill="#6814C9"/>
<path d="M369.5 91.5674C369.636 93.9816 365.748 101.296 362.762 106.534C360.562 110.381 359.157 114.657 358.643 119.083C354.792 152.175 352.243 179.864 340.981 187.618C338.369 189.411 335.298 190.149 331.639 189.63C329.053 189.261 326.931 188.201 325.191 186.61C313.329 175.817 319.086 141.052 319.086 141.052L333.798 138.457C333.798 138.457 337.089 110.046 339.175 100.269C341.271 90.4994 344.556 95.6889 344.556 95.6889C345.751 92.6354 349.032 94.4667 349.032 94.4667C351.423 90.4994 354.409 93.5454 354.409 93.5454C356.204 89.8864 361.287 96.2981 361.287 96.2981C364.571 94.7713 369.206 86.487 369.5 91.5674Z" fill="#FFBC96"/>
<path d="M260.406 118.721L258.957 149.733L259.876 149.778L261.324 118.766L260.406 118.721Z" fill="#1B1B43"/>
<path d="M318.662 141.608L316.787 116.906L317.702 116.834L319.501 140.506L333.72 137.994L333.875 138.923L318.662 141.608Z" fill="#1B1B43"/>
<path d="M336.859 112.137L330.12 164.154L331.032 164.278L337.77 112.26L336.859 112.137Z" fill="#D28572"/>
<path opacity="0.4" d="M340.977 187.618C338.366 189.411 335.294 190.149 331.635 189.63C329.049 189.261 326.927 188.201 325.187 186.61C326.592 183.726 329.509 181.74 332.874 181.74C336.619 181.74 339.807 184.196 340.977 187.618Z" fill="#FE5B52"/>
<path d="M345.012 95.6463L344.103 95.7899L344.954 101.417L345.862 101.273L345.012 95.6463Z" fill="#D28572"/>
<path d="M349.61 94.3789L348.737 94.6723L350.507 100.182L351.38 99.8882L349.61 94.3789Z" fill="#D28572"/>
<path d="M354.886 92.9362L354.02 93.2515L356.019 98.9943L356.886 98.679L354.886 92.9362Z" fill="#D28572"/>
<path d="M309.795 118.357H300.214C299.908 118.357 299.658 118.105 299.658 117.789V115.514C299.658 115.202 299.905 114.946 300.214 114.946H309.795C310.1 114.946 310.35 115.198 310.35 115.514V117.789C310.346 118.105 310.1 118.357 309.795 118.357Z" fill="#CBCBFF"/>
<path d="M289.985 107.741C283.674 107.741 279.3 103.804 279.238 103.744L279.852 103.044C280.231 103.39 289.213 111.449 300.111 103.018L300.666 103.766C296.815 106.748 293.155 107.741 289.985 107.741Z" fill="#1B1B43"/>
<path d="M222.255 181.315C220.298 180.537 218.168 178.867 216.101 176.49L216.789 175.866C218.761 178.134 220.765 179.717 222.589 180.443L222.255 181.315Z" fill="#D28572"/>
<path d="M217.002 182.684C215.123 181.469 213.453 179.491 211.905 176.641L212.71 176.186C214.185 178.897 215.748 180.766 217.495 181.894L217.002 182.684Z" fill="#D28572"/>
<path d="M213.295 184.429C211.051 182.722 208.981 180.334 206.976 177.137L207.749 176.63C209.694 179.732 211.688 182.037 213.843 183.673L213.295 184.429Z" fill="#D28572"/>
<path d="M289.956 101.649C284.799 101.649 280.617 97.3736 280.617 92.1014V75.9877H299.291V92.1014C299.294 97.3736 295.112 101.649 289.956 101.649Z" fill="#FFBC96"/>
<path d="M280.617 77.6197C286.392 87.5399 292.586 88.3521 299.313 77.6987L280.617 77.6197Z" fill="#D28572"/>
<path d="M289.956 81.7149C282.802 81.7149 277.002 75.7846 277.002 68.4705V46.1294H302.906V68.4705C302.91 75.7884 297.109 81.7149 289.956 81.7149Z" fill="#FFBC96"/>
<path d="M289.709 68.8089C288.194 67.3461 287.624 66.1916 287.97 65.2741C288.301 64.3941 289.352 64.1158 289.974 64.0256L289.941 61.1375L290.86 61.1262L290.905 64.913L290.452 64.9243C290.003 64.9394 289.014 65.1236 288.83 65.6087C288.742 65.8419 288.72 66.5489 290.346 68.1208L289.709 68.8089Z" fill="#1B1B43"/>
<path d="M294.561 71.6895C295.131 70.802 295.407 70.0311 295.407 70.0311C292.269 70.2981 285.623 70.2981 285.623 70.2981C285.623 70.2981 285.814 71.0915 286.366 71.9715C288.348 72.0542 291.603 72.0956 294.561 71.6895Z" fill="white"/>
<path d="M286.362 71.9752C287.039 73.0583 288.264 74.2804 290.36 74.3481C292.387 74.4158 293.763 72.9379 294.557 71.6932C291.604 72.0956 288.349 72.0542 286.362 71.9752Z" fill="#1B1B43"/>
<path d="M302.762 60.1899C302.773 60.6975 303.222 49.6154 286.325 47.2613C286.325 47.2613 276.785 52.8419 277.877 60.8931L272.695 59.8928C270.694 54.3122 271.382 39.3868 283.107 40.4473C283.107 40.4473 285.634 36.7545 289.772 36.6868C310.806 36.3333 307.485 60.1823 306.977 60.8667L302.762 60.1899Z" fill="#1B1B43"/>
<path d="M309.434 65.3104C310.424 62.2413 309.21 59.0731 306.721 58.234C304.232 57.3949 301.412 59.2027 300.422 62.2717C299.433 65.3407 300.647 68.5089 303.136 69.348C305.625 70.1871 308.445 68.3794 309.434 65.3104Z" fill="#FFBC96"/>
<path d="M304.263 65.4695L303.351 65.353C303.509 64.0556 304.421 61.5699 306.731 61.4308L306.786 62.3709C304.653 62.495 304.267 65.4394 304.263 65.4695Z" fill="#1B1B43"/>
<path d="M270.389 65.3192C271.378 68.3877 274.199 70.1965 276.689 69.3579C279.179 68.5193 280.393 65.3492 279.403 62.2807C278.414 59.2121 275.593 57.4033 273.103 58.2419C270.617 59.0805 269.399 62.2469 270.389 65.3192Z" fill="#FFBC96"/>
<path d="M275.564 65.4696C275.549 65.3493 275.166 62.495 273.044 62.3672L273.099 61.4271C275.409 61.5662 276.321 64.0556 276.479 65.3492L275.564 65.4696Z" fill="#1B1B43"/>
<path d="M296.635 58.3773C296.635 59.2234 296.01 59.9116 295.241 59.9116C294.468 59.9116 293.847 59.2234 293.847 58.3773C293.847 57.5312 294.472 56.843 295.241 56.843C296.013 56.843 296.635 57.5312 296.635 58.3773Z" fill="#1B1B43"/>
<path d="M297.738 55.0192L293.431 54.489C293.023 54.4401 292.733 54.0603 292.78 53.6429L292.806 53.436C292.854 53.0186 293.225 52.7215 293.634 52.7704L297.941 53.3006C298.349 53.3495 298.639 53.7293 298.592 54.1468L298.566 54.3536C298.518 54.771 298.147 55.0681 297.738 55.0192Z" fill="#1B1B43"/>
<path d="M283.192 58.3773C283.192 59.2234 283.817 59.9116 284.586 59.9116C285.354 59.9116 285.98 59.2234 285.98 58.3773C285.98 57.5312 285.354 56.843 284.586 56.843C283.817 56.843 283.192 57.5312 283.192 58.3773Z" fill="#1B1B43"/>
<path d="M282.088 55.0192L286.395 54.489C286.804 54.4401 287.094 54.0603 287.046 53.6429L287.021 53.436C286.973 53.0186 286.601 52.7215 286.193 52.7704L281.886 53.3006C281.478 53.3495 281.187 53.7293 281.235 54.1468L281.261 54.3536C281.309 54.771 281.68 55.0681 282.088 55.0192Z" fill="#1B1B43"/>
<path opacity="0.4" d="M297.849 67.5153C299.51 67.5153 300.857 66.1381 300.857 64.4392C300.857 62.7403 299.51 61.3631 297.849 61.3631C296.187 61.3631 294.84 62.7403 294.84 64.4392C294.84 66.1381 296.187 67.5153 297.849 67.5153Z" fill="#FE5B52"/>
<path opacity="0.4" d="M281.978 67.5153C283.64 67.5153 284.987 66.1381 284.987 64.4392C284.987 62.7403 283.64 61.3631 281.978 61.3631C280.316 61.3631 278.969 62.7403 278.969 64.4392C278.969 66.1381 280.316 67.5153 281.978 67.5153Z" fill="#FE5B52"/>
<rect x="390" y="140.221" width="78" height="85.8837" rx="6" fill="white" stroke="#6814C9"/>
<path d="M461.818 226.069H395.82C392.432 226.069 389.674 223.248 389.674 219.785V145.752C389.674 142.289 392.432 139.468 395.82 139.468H461.818C465.205 139.468 467.964 142.289 467.964 145.752V219.785C467.968 223.252 465.209 226.069 461.818 226.069ZM395.82 140.371C392.918 140.371 390.557 142.785 390.557 145.752V219.785C390.557 222.752 392.918 225.166 395.82 225.166H461.818C464.72 225.166 467.081 222.752 467.081 219.785V145.752C467.081 142.785 464.72 140.371 461.818 140.371H395.82Z" fill="#6814C9"/>
<path d="M242.006 2.95897H196.924C193.963 2.95897 191.565 5.41081 191.565 8.438V27.0975C191.565 30.1247 193.963 32.5766 196.924 32.5766H227.709L239.545 42.9179V32.5728H242.002C244.963 32.5728 247.361 30.121 247.361 27.0938V8.43424C247.361 5.41081 244.963 2.95897 242.006 2.95897Z" fill="white"/>
<path d="M240.03 43.9859L227.533 33.0655H196.924C193.702 33.0655 191.083 30.388 191.083 27.0938V8.43427C191.083 5.14008 193.702 2.46262 196.924 2.46262H242.006C245.227 2.46262 247.846 5.14008 247.846 8.43427V27.0938C247.846 30.388 245.227 33.0655 242.006 33.0655H240.03V43.9859ZM196.924 3.45163C194.236 3.45163 192.051 5.68912 192.051 8.43427V27.0938C192.051 29.8427 194.239 32.0765 196.924 32.0765H227.889L239.063 41.8387V32.0765H242.006C244.694 32.0765 246.879 29.839 246.879 27.0938V8.43427C246.879 5.68536 244.69 3.45163 242.006 3.45163H196.924Z" fill="#6814C9"/>
<path d="M234.488 10.48H198.399V11.4201H234.488V10.48Z" fill="#6814C9"/>
<path d="M239.317 16.8239H198.399V17.764H239.317V16.8239Z" fill="#6814C9"/>
<path d="M227.132 23.1716H198.399V24.1118H227.132V23.1716Z" fill="#6814C9"/>
<path d="M229.982 322.409H217.109V482.229H229.982V322.409Z" fill="#B0B0D2"/>
<path d="M361.011 322.409H348.138V482.229H361.011V322.409Z" fill="#B0B0D2"/>
<path opacity="0.3" d="M229.982 321.972H217.109V350.142H229.982V321.972Z" fill="#1B1B43"/>
<path opacity="0.3" d="M361.011 321.972H348.138V350.142H361.011V321.972Z" fill="#1B1B43"/>
<path d="M433.615 316.96H144.501V330.204H433.615V316.96Z" fill="#B0B0D2"/>
<path d="M399.616 312.436H366.135V316.975H399.616V312.436Z" fill="#1B1B43"/>
<path d="M371.085 316.975H366.131L346.398 263.745C345.825 262.196 346.943 260.537 348.565 260.537C349.528 260.537 350.389 261.147 350.731 262.064L371.085 316.975Z" fill="#1B1B43"/>
<path d="M186.135 316.975H219.616V312.436H186.135V316.975Z" fill="#1B1B43"/>
<path d="M214.66 316.975H219.614L239.346 263.745C239.92 262.196 238.802 260.537 237.18 260.537C236.216 260.537 235.356 261.147 235.014 262.064L214.66 316.975Z" fill="#1B1B43"/>
<path d="M120.315 255.686L138.58 258.691L138.782 248.455L138.973 238.272L139.143 229.562L134.074 227.118L125.398 237.516L120.315 255.686Z" fill="#D28572"/>
<path d="M131.319 238.162C131.319 238.162 133.523 242.893 138.782 248.455L138.973 238.268L131.319 238.162Z" fill="#925D4F"/>
<path d="M151.626 225.569C151.839 225.689 157.407 234.413 154.906 235.203C152.402 235.993 149.242 235.688 149.242 235.688L151.626 225.569Z" fill="#925D4F"/>
<path d="M153.461 218.149L151.155 239.828C150.96 241.667 149.779 243.243 148.091 243.912C146.914 244.382 145.601 244.36 144.439 243.856L131.316 238.162L129.546 225.941L140.172 214.562L153.461 218.149Z" fill="#D28572"/>
<path d="M121.889 243.788L115.603 258.044L139.97 261.963L141.658 250.839L121.889 243.788Z" fill="#FED3D1"/>
<path d="M137.892 225.915C137.892 225.915 148.665 224.057 153.457 218.153C153.457 218.153 155.234 206.736 138.808 205.224C120.988 203.585 104.275 229.367 104.275 229.367L126.045 248.808L137.892 225.915Z" fill="#0E011E"/>
<path d="M133.887 228.637C135.112 231.074 137.587 232.27 139.418 231.311C141.246 230.348 141.736 227.595 140.511 225.159C139.286 222.722 136.811 221.526 134.979 222.485C133.147 223.444 132.658 226.2 133.887 228.637Z" fill="#D28572"/>
<path d="M137.947 228.656C137.874 228.137 137.506 226.663 136.719 226.114C136.417 225.903 136.079 225.843 135.689 225.933L135.487 225.016C136.134 224.865 136.726 224.974 137.241 225.339C138.521 226.238 138.845 228.427 138.856 228.521L137.947 228.656Z" fill="#1B1B43"/>
<path opacity="0.3" d="M145.7 234.992C147.669 234.992 149.264 233.361 149.264 231.348C149.264 229.336 147.669 227.705 145.7 227.705C143.732 227.705 142.136 229.336 142.136 231.348C142.136 233.361 143.732 234.992 145.7 234.992Z" fill="#BE443D"/>
<path d="M147.922 290.016C146.495 295.423 142.784 300.056 137.513 302.286C137.201 302.418 136.888 302.538 136.568 302.662C136.255 302.775 135.954 302.896 135.648 303.012C125.817 306.961 118.123 315.234 115.052 325.594C114.875 326.195 114.728 326.767 114.61 327.305C114.61 327.305 94.1532 330.358 73.4607 318.611C73.4607 318.611 84.8625 277.256 110.027 257.578C115.846 253.028 123.489 251.712 130.477 253.979C133.541 254.976 136.399 256.45 138.973 258.341C141.537 260.24 143.821 262.545 145.715 265.193L146.164 265.832L148.389 282.435C148.738 285.014 148.555 287.59 147.922 290.016Z" fill="#00AF47"/>
<path d="M147.922 290.016C146.495 295.423 142.784 300.056 137.513 302.286C137.201 302.418 136.888 302.538 136.568 302.662C136.255 302.775 135.954 302.896 135.649 303.012C132.467 295.032 129.856 282.341 129.856 282.341L145.182 284.416L147.922 290.016Z" fill="black" fill-opacity="0.4"/>
<path d="M181.042 272.304C181.042 272.304 194.504 257.589 198.741 258.672C200.58 259.142 195.063 265.02 195.063 265.02C195.063 265.02 200.326 265.125 208.76 260.669C209.683 260.184 210.819 260.598 211.217 261.579C211.467 262.196 211.367 262.899 210.959 263.418C209.175 265.682 203.853 271.766 196.442 274.421L193.297 278.576L185.408 282.412L181.042 272.304Z" fill="#D28572"/>
<path d="M193.301 278.576L175.691 310.672C173.503 314.647 169.394 317.121 164.922 317.121C163.131 317.121 161.384 316.715 159.791 315.974C158.198 315.23 156.764 314.139 155.591 312.748L129.856 282.337L146.168 265.828L164.035 290.873L181.043 272.304L193.301 278.576Z" fill="#00AF47"/>
<path d="M169.045 300.173C158.717 283.687 144.998 264.17 137.642 257.736L138.238 257.021C146.73 264.445 162.086 287.32 169.821 299.665L169.045 300.173Z" fill="#1B1B43"/>
<path d="M165.381 318.009C163.502 318.009 161.538 317.471 159.574 316.388C153.939 313.278 130.492 283.882 129.499 282.634L130.212 282.04C130.455 282.344 154.539 312.537 160.011 315.561C166.238 318.998 170.464 315.873 172.428 313.703C175.558 310.247 192.724 278.667 192.897 278.347L193.702 278.802C192.992 280.107 176.309 310.8 173.105 314.342C170.902 316.772 168.235 318.009 165.381 318.009Z" fill="#1B1B43"/>
<path d="M136.447 445.128L120.591 477.1L124.055 477.6L129.804 469.256L147.826 482.263L158.393 482.218C158.393 482.218 160.538 480.045 155.05 474.208C148.595 467.349 144.906 458.358 145.075 448.975L145.09 448.167L140.768 443.658L136.447 445.128Z" fill="#250846"/>
<path d="M137.109 455.12L133.611 482.207H137.109L141.658 473.118L158.452 481.857H171.745C171.745 481.857 173.569 479.398 167.335 474.408C160.004 468.541 155.116 460.17 153.998 450.852L153.903 450.047L149.003 446.204L137.109 455.12Z" fill="#360F62"/>
<path d="M155.756 458.448L180.366 369.964C182.352 362.83 179.023 355.272 172.487 352.056L150.324 341.158L149.003 446.208L155.756 458.448Z" fill="#0E011E"/>
<path d="M73.4607 318.603L68.5028 342.734C65.6082 356.825 76.1236 370.073 90.2104 370.073H136.601C131.959 393.26 134.975 425.156 136.601 457.974L155.756 458.444L168.971 374.093C171.182 359.983 163.395 346.224 150.324 341.155L114.607 327.297L73.4607 318.603Z" fill="#250846"/>
<path opacity="0.4" d="M150.235 458.508L149.323 458.388C149.423 457.594 159.397 378.699 156.683 364.21C153.88 349.244 125.655 344.923 110.495 342.599C109.145 342.392 107.905 342.204 106.798 342.023C102.999 341.407 100.299 339.729 98.7653 337.041C95.7457 331.738 98.3571 324.466 98.4674 324.157L99.3281 324.488C99.3023 324.56 96.7608 331.656 99.5598 336.571C100.946 339 103.429 340.523 106.938 341.095C108.041 341.275 109.281 341.463 110.627 341.67C126.016 344.024 154.656 348.412 157.584 364.034C158.735 370.186 157.849 387.958 154.947 416.857C152.788 438.356 150.261 458.309 150.235 458.508Z" fill="white"/>
<path d="M83.9984 373.893L80.8243 392.64L65.6451 482.353H59.2638L74.4429 392.64L77.6171 373.893H83.9984Z" fill="#B0B0D2"/>
<path d="M126.295 482.353H119.914L104.731 392.64L101.561 373.893H107.942L111.116 392.64L126.295 482.353Z" fill="#B0B0D2"/>
<path opacity="0.3" d="M83.9981 373.893L80.824 392.64H74.4427L77.6168 373.893H83.9981Z" fill="#1B1B43"/>
<path opacity="0.3" d="M111.116 392.64H104.731L101.561 373.893H107.942L111.116 392.64Z" fill="#1B1B43"/>
<path d="M120.962 379.008H61.2498V370.077H120.966C123.379 370.077 125.332 372.077 125.332 374.544C125.332 377.007 123.375 379.008 120.962 379.008Z" fill="#CBCBFF"/>
<path d="M69.6762 379.008H61.2498L32.7784 307.656C31.9839 305.671 32.8519 303.396 34.7498 302.482C36.7984 301.497 39.237 302.467 40.0903 304.614L69.6762 379.008Z" fill="#CBCBFF"/>
<path d="M586 481.793H0V482.733H586V481.793Z" fill="#1B1B43"/>
<rect x="110" y="115.683" width="68" height="49.0764" rx="6" fill="white" stroke="#6814C9"/>
<path d="M134.222 127.497L120 140.221L134.222 152.036" stroke="#6814C9"/>
<path d="M153.778 127.497L168 140.221L153.778 152.036" stroke="#6814C9"/>
<path d="M148.444 123.862L139.556 156.58" stroke="#6814C9"/>
<path d="M406.863 147.378H399V149.637H406.863V147.378Z" fill="#6814C9"/>
<path d="M425.441 147.378H409.351V149.637H425.441V147.378Z" fill="#6814C9"/>
<path d="M410.201 156.539H402.338V158.798H410.201V156.539Z" fill="#6814C9" fill-opacity="0.5"/>
<path d="M458.664 156.539H412.689V158.798H458.664V156.539Z" fill="#6814C9" fill-opacity="0.5"/>
<path d="M410.201 165.035H402.338V167.295H410.201V165.035Z" fill="#6814C9" fill-opacity="0.5"/>
<path d="M458.664 165.035H412.689V167.295H458.664V165.035Z" fill="#6814C9" fill-opacity="0.5"/>
<path d="M410.201 173.542H402.338V175.801H410.201V173.542Z" fill="#6814C9" fill-opacity="0.5"/>
<path d="M458.664 173.542H412.689V175.801H458.664V173.542Z" fill="#6814C9" fill-opacity="0.5"/>
<path d="M406.863 184.911H399V187.171H406.863V184.911Z" fill="#6814C9"/>
<path d="M425.441 184.911H409.351V187.171H425.441V184.911Z" fill="#6814C9"/>
<path d="M442.334 194.072H412.689V196.332H442.334V194.072Z" fill="#6814C9" fill-opacity="0.5"/>
<path d="M442.334 202.568H412.689V204.828H442.334V202.568Z" fill="#6814C9" fill-opacity="0.5"/>
<path d="M410.201 202.568H407.593V204.828H410.201V202.568Z" fill="#6814C9" fill-opacity="0.5"/>
<path d="M410.201 211.075H402.338V213.335H410.201V211.075Z" fill="#6814C9" fill-opacity="0.5"/>
<path d="M442.334 211.075H412.689V213.335H442.334V211.075Z" fill="#6814C9" fill-opacity="0.5"/>
<path d="M459 194.072H444.471V196.332H459V194.072Z" fill="#6814C9" fill-opacity="0.5"/>
<path d="M459 202.568H444.471V204.828H459V202.568Z" fill="#6814C9" fill-opacity="0.5"/>
<path d="M459 211.075H444.471V213.335H459V211.075Z" fill="#6814C9" fill-opacity="0.5"/>
<path d="M457.544 224.956C457.327 225.069 451.42 233.484 453.874 234.383C456.327 235.278 459.479 235.117 459.479 235.117L457.544 224.956Z" fill="#D28572"/>
<path d="M487.377 256.273L467.703 258.653L468.067 248.459L468.439 238.309L468.751 229.634L474.298 227.366L482.978 238.008L487.377 256.273Z" fill="#FFBC96"/>
<path d="M476.618 238.46C476.618 238.46 473.996 243.096 468.071 248.459L468.442 238.309L476.618 238.46Z" fill="#D28572"/>
<path d="M456.04 217.502L457.408 239.148C457.526 240.983 458.629 242.6 460.277 243.344C461.428 243.863 462.73 243.901 463.907 243.45L477.192 238.377L479.472 226.309L469.398 214.532L456.04 217.502Z" fill="#FFBC96"/>
<path d="M471.414 226.298C471.414 226.298 468.152 219.823 464.753 218.834C464.753 218.834 451.674 223.192 448.794 212.937C448.794 212.937 456.165 213.009 462.48 208.488C468.795 203.968 475.386 206.138 479.947 210.357C479.947 210.357 494.85 211.11 483.099 237.997C483.099 237.997 480.146 238.997 472.624 228.257L471.414 226.298Z" fill="#0E011E"/>
<path d="M475.077 228.513C473.757 230.882 471.256 231.965 469.494 230.939C467.732 229.912 467.376 227.159 468.7 224.79C470.024 222.421 472.521 221.338 474.283 222.365C476.041 223.395 476.398 226.144 475.077 228.513Z" fill="#FFBC96"/>
<path opacity="0.4" d="M463.731 233.992C465.73 233.992 467.35 232.308 467.35 230.232C467.35 228.155 465.73 226.471 463.731 226.471C461.732 226.471 460.112 228.155 460.112 230.232C460.112 232.308 461.732 233.992 463.731 233.992Z" fill="#FE5B52"/>
<path d="M470.807 228.306C470.627 227.088 470.958 224.587 473.492 223.846L473.746 224.749C471.344 225.448 471.701 228.054 471.72 228.163L470.807 228.306Z" fill="#1B1B43"/>
<path d="M467.703 258.653L467.927 248.173L485.243 243.63L490.3 256.634L467.703 258.653Z" fill="#CBCBFF"/>
<path d="M470.38 254.442C461.689 263.091 455.363 276.064 447.393 289.226C447.393 289.226 420.381 296.356 412.643 304.268L426.55 311.477L474.058 298.003L470.38 254.442Z" fill="#0E011E"/>
<path d="M400.145 450.72L389.31 482.173L355.41 473.524C355.41 473.524 360.684 466.15 376.595 468.27L385.054 443.963L400.145 450.72Z" fill="#1B1B43"/>
<path d="M467.927 326.361L418.962 342.633C407.465 346.453 398.685 356.031 395.699 368.005L375.977 451.397L402.643 458.448C413.096 433.114 423.251 402.879 430.228 373.525L467.927 326.361Z" fill="#00692B"/>
<path d="M450.151 453.104L454.135 482.248H417.049C417.049 482.248 420.422 473.787 436.359 471.907L435.439 454.357L450.151 453.104Z" fill="#1B1B43"/>
<path d="M512.317 318.054L517.275 342.185C520.17 356.276 509.827 370.31 495.744 370.31H451.148C453.653 393.738 456.069 424.607 454.444 457.425L430.022 457.895L416.807 373.544C414.596 359.434 422.383 345.675 435.454 340.606L467.931 326.361L512.317 318.054Z" fill="#00AF47"/>
<path d="M513.902 325.891C509.886 286.665 504.141 249.655 475.243 251.354C473.529 251.456 471.918 252.242 470.704 253.483C465.731 258.567 463.19 265.622 463.749 272.785L467.927 326.361C467.927 326.361 490.455 330.591 513.902 325.891Z" fill="#250846"/>
<path d="M412.643 303.915C412.643 303.915 395.632 307.205 392.874 317.076H417.009L421.606 313.786L412.643 303.915Z" fill="#250846"/>
<path d="M475.397 259.966L453.329 294.983L412.643 303.915L417.013 317.076L451.126 316.9C460.284 316.715 468.122 311.819 473.216 304.035L492.18 276.185L475.397 259.966Z" fill="#250846"/>
<path d="M412.738 304.373L412.544 303.456L452.98 294.581C454.057 291.471 455.128 288.252 456.161 285.135C460.409 272.353 464.422 260.278 469.398 253.682L470.126 254.257C465.246 260.729 461.255 272.729 457.033 285.436C455.97 288.636 454.87 291.949 453.759 295.138L453.675 295.386L453.425 295.442L412.738 304.373Z" fill="#5254CF"/>
<path d="M437.028 317.731C427.565 317.731 417.741 317.561 417.001 317.546L417.016 316.606C417.347 316.614 450.225 317.182 454.263 316.264L454.388 316.238C464.142 314.019 472.238 307.036 476.048 297.559L480.605 286.225L481.455 286.583L476.898 297.917C472.973 307.675 464.635 314.865 454.587 317.155L454.466 317.182C452.579 317.61 444.929 317.731 437.028 317.731Z" fill="#5254CF"/>
<path d="M522.145 482.353H528.526L510.173 373.89H503.788L522.145 482.353Z" fill="#B0B0D2"/>
<path d="M467.876 482.353H461.491L479.848 373.89H486.229L467.876 482.353Z" fill="#B0B0D2"/>
<path opacity="0.3" d="M486.218 373.89L483.044 392.636H476.662L479.837 373.89H486.218Z" fill="#1B1B43"/>
<path opacity="0.3" d="M513.332 392.636H506.951L503.781 373.89H510.162L513.332 392.636Z" fill="#1B1B43"/>
<path d="M466.824 379.008H526.54V370.077H466.824C464.411 370.077 462.454 372.077 462.454 374.544C462.458 377.007 464.411 379.008 466.824 379.008Z" fill="#CBCBFF"/>
<path d="M518.11 379.008H526.54L555.011 307.656C555.806 305.671 554.938 303.396 553.04 302.482C550.991 301.497 548.553 302.467 547.7 304.614L518.11 379.008Z" fill="#CBCBFF"/>
<path d="M445.257 20.4C432.757 31.588 411.197 23.8753 404.498 32.8095L423.641 48.3082L445.257 20.4Z" stroke="#6814C9"/>
<path d="M404.499 32.8096C403.541 35.4166 404.059 38.3493 405.851 40.4466L419.415 56.3314L423.641 48.3083L404.499 32.8096Z" stroke="#6814C9"/>
<path d="M473.59 43.3389C465.805 58.3429 478.088 78.0311 471.117 86.7458L451.974 71.2471L473.59 43.3389Z" stroke="#6814C9"/>
<path d="M471.117 86.7458C468.856 88.2955 465.943 88.4519 463.537 87.1497L445.305 77.2917L451.974 71.2471L471.117 86.7458Z" stroke="#6814C9"/>
<path d="M483.316 1.17107L466.271 7.5664L481.131 19.5974L483.316 1.17107Z" stroke="#6814C9"/>
<path d="M481.132 19.5974C478.75 47.17 458.824 72.9002 434.621 87.19L412.566 69.3517C421.82 39.5834 439.055 18.2799 466.269 7.56386L481.132 19.5974Z" fill="#F0E8FA" stroke="#6814C9"/>
<path d="M412.568 69.3543L403 76.1256L430.363 98.2796L434.621 87.1926L412.568 69.3543Z" fill="white" stroke="#6814C9"/>
<path d="M460.831 39.6353C465.269 39.0956 468.439 34.9798 467.911 30.4424C467.383 25.905 463.358 22.6641 458.92 23.2038C454.482 23.7434 451.312 27.8592 451.84 32.3966C452.368 36.9341 456.394 40.1749 460.831 39.6353Z" fill="white" stroke="#6814C9"/>
</svg>
