<svg width="80" height="80" viewBox="0 0 80 80" fill="none" xmlns="http://www.w3.org/2000/svg">
<path fill-rule="evenodd" clip-rule="evenodd" d="M44.0757 37.7812H17.4761C16.9558 37.7812 16.5341 37.3604 16.5341 36.8405C16.5341 36.3206 16.9553 35.8984 17.4761 35.8984H44.0757C44.5956 35.8984 45.0169 36.3206 45.0169 36.8405C45.0164 37.3604 44.5952 37.7812 44.0762 37.7812H44.0757ZM16.5342 29.6885C16.5342 29.1673 16.9554 28.7465 17.4762 28.7465H44.0758C44.5957 28.7465 45.017 29.1673 45.017 29.6885C45.017 30.2084 44.5957 30.6297 44.0758 30.6297H17.4762C16.9563 30.6297 16.5342 30.2075 16.5342 29.6885ZM27.0376 22.5335C27.0376 22.0145 27.4589 21.5928 27.9787 21.5928H44.0757C44.5956 21.5928 45.0169 22.014 45.0169 22.5335C45.0169 23.0547 44.5956 23.4755 44.0757 23.4755H27.9799C27.46 23.4755 27.0383 23.0547 27.0383 22.5335H27.0376ZM63.4629 48.6133C63.4629 49.1332 63.0416 49.5541 62.5217 49.5541H35.9221C35.4023 49.5541 34.981 49.1332 34.981 48.6133C34.981 48.0921 35.4023 47.6713 35.9221 47.6713H62.5217C63.0407 47.6717 63.4629 48.0926 63.4629 48.6133ZM70.116 53.6463V29.2714C70.116 28.3795 69.3904 27.6522 68.4981 27.6522H53.5518V33.3655H62.5216C63.0415 33.3655 63.4628 33.7863 63.4628 34.3062C63.4628 34.8261 63.0415 35.2483 62.5216 35.2483L53.5518 35.2478V40.5175H62.5216C63.0415 40.5175 63.4628 40.9397 63.4628 41.4587C63.4628 41.9785 63.0415 42.4007 62.5216 42.4007H53.5128C53.2592 44.0827 51.8039 45.3762 50.0516 45.3762H28.327V53.6463C28.327 54.5396 29.0534 55.266 29.9462 55.266H53.1589C53.3659 55.266 53.5681 55.3342 53.7325 55.4601L63.21 62.7527V56.2062C63.21 55.6863 63.6313 55.2655 64.1512 55.2655H68.4985C69.3899 55.2655 70.1156 54.5394 70.1156 53.6467L70.116 53.6463ZM16.7871 50.9806L26.2655 43.6893C26.43 43.562 26.6317 43.4934 26.8392 43.4934H50.0519C50.9442 43.4934 51.6702 42.7674 51.6702 41.8751V17.5001C51.6702 16.6078 50.9442 15.8818 50.0519 15.8818H11.4995C10.6072 15.8818 9.8815 16.6079 9.8815 17.5001V41.8751C9.8815 42.7674 10.6071 43.4934 11.4995 43.4934H15.8468C16.3667 43.4934 16.788 43.9142 16.788 44.4341V50.9806L16.7871 50.9806ZM68.4983 25.7704H53.5521V17.5003C53.5521 15.5695 51.9825 14 50.0523 14H11.4998C9.56954 14 8 15.5695 8 17.5003V41.8752C8 43.8059 9.56954 45.3755 11.4998 45.3755H14.906V52.8923C14.906 53.2508 15.109 53.5785 15.4303 53.7367C15.5635 53.8021 15.7055 53.8326 15.8467 53.8326C16.0497 53.8326 16.2523 53.7676 16.4204 53.6381L26.446 45.9241V53.6458C26.446 55.5765 28.0169 57.1474 29.9472 57.1474H52.841L63.5805 65.4086C63.749 65.5386 63.9507 65.6045 64.1542 65.6045C64.2963 65.6045 64.4388 65.5722 64.5705 65.5085C64.8919 65.3485 65.0949 65.0209 65.0949 64.6642L65.094 57.1483H68.5002C70.4305 57.1483 72 55.5775 72 53.6466L71.9995 29.2717C71.9995 27.3414 70.4296 25.7705 68.4993 25.7705L68.4983 25.7704Z" fill="#6814C9"/>
</svg>
