<svg width="80" height="80" viewBox="0 0 80 80" fill="none" xmlns="http://www.w3.org/2000/svg">
<path d="M22.3198 23.8829C22.3198 23.3125 22.7815 22.8507 23.3519 22.8507H39.9641C40.5345 22.8507 40.9963 23.3125 40.9963 23.8829C40.9963 24.4533 40.5345 24.9151 39.9641 24.9151L23.3519 24.9156C22.782 24.9145 22.3203 24.4528 22.3203 23.8829H22.3198ZM23.3514 32.9478H53.5084C54.0788 32.9478 54.5405 32.4861 54.5405 31.9157C54.5405 31.3453 54.0788 30.8835 53.5084 30.8835L23.3514 30.883C22.781 30.883 22.3193 31.3448 22.3193 31.9152C22.3198 32.4861 22.7815 32.9478 23.3514 32.9478ZM46.9197 38.9162H23.3514C22.781 38.9162 22.3193 39.378 22.3193 39.9484C22.3193 40.5188 22.781 40.9805 23.3514 40.9805H46.9183C47.4887 40.9805 47.9505 40.5188 47.9505 39.9484C47.9505 39.378 47.4887 38.9162 46.9188 38.9162H46.9197ZM46.9197 46.949H23.3514C22.781 46.949 22.3193 47.4108 22.3193 47.9812C22.3193 48.5516 22.781 49.0133 23.3514 49.0133H46.9183C47.4887 49.0133 47.9505 48.5516 47.9505 47.9812C47.9505 47.4108 47.4887 46.949 46.9188 46.949H46.9197ZM46.9197 54.9822H23.3514C22.781 54.9822 22.3193 55.444 22.3193 56.0144C22.3193 56.5848 22.781 57.0465 23.3514 57.0465H46.9183C47.4887 57.0465 47.9505 56.5848 47.9505 56.0144C47.9505 55.444 47.4887 54.9822 46.9188 54.9822H46.9197ZM62.8299 40.2068C65.7762 40.2068 68.1721 42.6038 68.1721 45.5501C68.1721 48.4964 65.7762 50.8933 62.8299 50.8933C59.8836 50.8933 57.4867 48.4964 57.4867 45.5501C57.4867 42.6033 59.8836 40.2068 62.8299 40.2068ZM62.8299 42.2711C61.0224 42.2711 59.5516 43.7419 59.5516 45.5494C59.5516 47.3569 61.0224 48.8278 62.8299 48.8278C64.6374 48.8278 66.1077 47.3569 66.1077 45.5494C66.1072 43.7425 64.6364 42.2711 62.8299 42.2711ZM76.7434 62.4584C76.4517 62.7905 75.9823 62.9017 75.5718 62.7305L71.5862 61.0747L71.0286 65.3539C70.9717 65.7926 70.6401 66.1462 70.2071 66.2323C70.1394 66.2456 70.0713 66.2523 70.0046 66.2523C69.6413 66.2523 69.2979 66.0596 69.1103 65.7357L64.1689 57.1772C64.0705 57.2597 63.9681 57.3356 63.8609 57.4022V68.862C63.8609 69.4324 63.3992 69.8941 62.8288 69.8941L14.0327 69.8946C13.4623 69.8946 13.0005 69.4329 13.0005 68.8625L13 11.0322C13 10.4617 13.4617 10 14.0322 10H62.8283C63.3987 10 63.8604 10.4617 63.8604 11.0322V33.6951C64.4375 34.0564 64.8746 34.6689 65.2487 35.2013C65.463 35.5057 65.8207 36.0156 65.9919 36.1017C66.1538 36.1309 66.7467 35.9167 67.1019 35.7922C68.0531 35.4601 69.1328 35.0839 70.0154 35.7302C70.8994 36.3785 70.861 37.5731 70.8297 38.5334C70.8179 38.9009 70.7974 39.5154 70.8805 39.6871C70.9891 39.7783 71.5785 39.9474 71.9306 40.0484C72.8633 40.3159 74.0235 40.6495 74.3746 41.7037C74.72 42.742 74.041 43.667 73.4414 44.4819C73.2036 44.8058 72.8049 45.348 72.7885 45.5525C72.8049 45.7488 73.2031 46.291 73.4414 46.6149C74.041 47.4308 74.7206 48.3548 74.3756 49.3931C74.0241 50.4478 72.8633 50.7809 71.9311 51.0484C71.6963 51.1161 71.3581 51.2135 71.1162 51.3103L76.8612 61.2603C77.0831 61.6431 77.0354 62.1254 76.7433 62.4575L76.7434 62.4584ZM63.5607 36.3895C63.3567 36.0995 63.0308 35.6351 62.8288 35.4793C62.628 35.6351 62.302 36.0995 62.098 36.3895C61.6117 37.0824 61.1079 37.7988 60.333 38.0566C59.5356 38.3226 58.692 38.0274 57.8757 37.7435C57.5944 37.6451 57.1613 37.4939 56.9056 37.454C56.8666 37.7102 56.8815 38.1699 56.8913 38.4677C56.9199 39.3266 56.9481 40.2157 56.4556 40.8886C55.9667 41.5549 55.1175 41.7988 54.2965 42.0351C53.9957 42.1212 53.5257 42.2565 53.2972 42.3784C53.4043 42.6137 53.6943 43.0088 53.8804 43.2615C54.3744 43.9333 54.9346 44.6949 54.9346 45.5502C54.9346 46.4055 54.3744 47.1671 53.8804 47.8389C53.6943 48.0916 53.4043 48.4867 53.2972 48.722C53.5257 48.8434 53.9957 48.9782 54.297 49.0653C55.118 49.3006 55.9672 49.545 56.4561 50.2118C56.5843 50.3865 56.676 50.5767 56.7426 50.7765C56.7426 50.7765 56.7426 50.777 56.7431 50.777C56.7437 50.7786 56.7437 50.7806 56.7447 50.7832C56.7872 50.9128 56.818 51.0471 56.8415 51.1845C56.8461 51.2091 56.8508 51.2332 56.8533 51.2578C56.8953 51.5376 56.9056 51.8282 56.9035 52.1223C56.9035 52.1546 56.903 52.1869 56.903 52.2192C56.901 52.357 56.8969 52.4949 56.8928 52.6322C56.883 52.93 56.8682 53.3892 56.9071 53.6459C57.1629 53.606 57.5969 53.4548 57.8773 53.3564C58.0023 53.3128 58.1294 53.2693 58.256 53.2272C58.2929 53.2155 58.3293 53.2032 58.3662 53.1914C58.4846 53.1529 58.603 53.1181 58.7213 53.0858C58.7413 53.0807 58.7613 53.074 58.7813 53.0684C58.9125 53.034 59.0437 53.0069 59.1749 52.9854C59.2087 52.9802 59.2415 52.9761 59.2753 52.971C59.384 52.9561 59.4921 52.9469 59.5997 52.9449C59.6213 52.9444 59.6433 52.9397 59.6648 52.9397C59.6746 52.9397 59.6838 52.9418 59.6935 52.9418C59.7632 52.9423 59.8329 52.95 59.9026 52.9567C59.94 52.9602 59.9775 52.9613 60.0149 52.9669C60.1215 52.9833 60.2275 53.0079 60.3326 53.0427C60.4295 53.075 60.5222 53.1145 60.6109 53.1596C61.2331 53.4789 61.6717 54.1026 62.0976 54.7093C62.2693 54.9538 62.5235 55.3104 62.7208 55.5139C62.7567 55.5103 62.7915 55.5037 62.8289 55.5037C62.8658 55.5037 62.9007 55.5103 62.9371 55.5139C63.1313 55.3135 63.3804 54.9666 63.551 54.7221L63.5613 54.7062C63.612 54.6345 63.6633 54.5617 63.715 54.4894C63.7248 54.4761 63.7345 54.4618 63.7443 54.4484C63.7617 54.4238 63.7801 54.4003 63.7976 54.3757C64.2157 53.7986 64.6739 53.2584 65.3248 53.0422C66.1222 52.7767 66.9669 53.0709 67.7821 53.3553C67.8529 53.3799 67.9323 53.4076 68.0158 53.4363C68.2685 53.5219 68.5601 53.6146 68.7523 53.6449C68.7912 53.3886 68.7763 52.9294 68.7666 52.6322C68.762 52.5041 68.7589 52.3749 68.7564 52.2463C68.7559 52.2201 68.7559 52.194 68.7559 52.1668C68.7543 52.0546 68.7553 51.9429 68.7579 51.8312C68.7584 51.8055 68.7584 51.7794 68.76 51.7538C68.7697 51.4878 68.7989 51.2285 68.8589 50.9799C68.8609 50.9702 68.8619 50.9604 68.864 50.9507C68.8655 50.944 68.8701 50.9379 68.8722 50.9312C68.9404 50.674 69.0418 50.4305 69.2022 50.2117C69.6911 49.5455 70.5403 49.3015 71.3613 49.0653C71.6627 48.9792 72.1326 48.8439 72.3612 48.7219C72.2531 48.4866 71.964 48.0915 71.778 47.8389C71.284 47.167 70.7238 46.4054 70.7238 45.5501C70.7238 44.6938 71.2839 43.9333 71.778 43.2614C71.964 43.0082 72.2531 42.6136 72.3612 42.3784C72.1326 42.2569 71.6617 42.1221 71.3613 42.035C70.5403 41.7998 69.6912 41.5553 69.2022 40.8886C68.7087 40.2162 68.7379 39.3271 68.7666 38.4671C68.7764 38.1703 68.7912 37.7106 68.7533 37.4544C68.497 37.4944 68.0635 37.6455 67.7832 37.7439C66.9673 38.0289 66.1233 38.3225 65.3258 38.0571C64.5504 37.7988 64.0472 37.0818 63.5608 36.3894L63.5607 36.3895ZM52.0184 59.656L54.4347 58.6515C54.5624 58.5982 54.6966 58.5726 54.8314 58.5726C55.0108 58.5726 55.1881 58.6192 55.347 58.7115C55.6253 58.8719 55.8123 59.1533 55.8543 59.4715L56.1926 62.0662L60.0439 55.3961C60.0418 55.3931 60.0387 55.3895 60.0362 55.3864C60.0116 55.3551 59.9875 55.3249 59.9634 55.2952C59.9532 55.2819 59.9419 55.2675 59.9306 55.2547C59.9045 55.2234 59.8788 55.1947 59.8542 55.1671C59.8466 55.1589 59.8384 55.1481 59.8312 55.1409C59.805 55.1132 59.781 55.0902 59.7579 55.0681C59.7528 55.063 59.7466 55.0564 59.7415 55.0517C59.7138 55.0277 59.6882 55.0092 59.6657 54.9979C59.6441 54.9949 59.6159 54.9959 59.5826 54.9995C59.351 55.0266 58.8662 55.1988 58.5556 55.3075C57.6034 55.6396 56.5247 56.0168 55.6421 55.3695C55.5422 55.2967 55.4587 55.2152 55.3813 55.1286C55.3597 55.1045 55.3392 55.0789 55.3192 55.0538C55.2629 54.9841 55.2126 54.9124 55.1686 54.8365C55.1553 54.8135 55.1399 54.7914 55.1276 54.7684C55.0794 54.6782 55.0369 54.5854 55.0015 54.4896L52.0184 59.656ZM61.7966 67.8317V57.4041C61.667 57.3232 61.5434 57.233 61.4271 57.1305L56.4575 65.7377C56.2709 66.0616 55.9276 66.2532 55.5632 66.2532C55.4966 66.2532 55.4289 66.2471 55.3608 66.2332C54.9272 66.1461 54.5961 65.793 54.5392 65.3548L53.9817 61.0756L49.9971 62.7314C49.5861 62.9026 49.1161 62.7914 48.8255 62.4593C48.5339 62.1272 48.4857 61.6449 48.7071 61.2621L54.4717 51.2778C54.2431 51.1983 53.9418 51.1122 53.727 51.0497C52.7943 50.7822 51.634 50.4485 51.283 49.3949C50.9365 48.3566 51.6166 47.4315 52.2162 46.6167C52.454 46.2928 52.8527 45.7516 52.8691 45.5461C52.8527 45.3498 52.4545 44.8076 52.2162 44.4847C51.6166 43.6688 50.9365 42.7437 51.283 41.7054C51.634 40.6513 52.7943 40.3187 53.726 40.0507C54.0786 39.9497 54.6674 39.7801 54.8058 39.6494C54.8596 39.5177 54.8401 38.9022 54.8273 38.5352C54.7961 37.5748 54.7566 36.3807 55.6417 35.7319C56.5226 35.0857 57.6019 35.4613 58.5552 35.794C58.9103 35.9185 59.5038 36.123 59.697 36.0932C59.8359 36.0169 60.1941 35.5069 60.4078 35.2025C60.7819 34.67 61.2191 34.0576 61.7961 33.6964L61.7951 12.0659H15.0653V67.8312L61.7966 67.8317ZM73.5505 59.656L70.6217 54.5829C70.594 54.6495 70.5623 54.7141 70.5279 54.7776C70.5248 54.7838 70.5218 54.7904 70.5187 54.7966C70.4654 54.8934 70.4003 54.9831 70.3291 55.0702C70.3127 55.0902 70.2947 55.1102 70.2773 55.1302C70.1999 55.2158 70.1159 55.2973 70.0165 55.3711C69.9421 55.4249 69.8653 55.4623 69.7884 55.5028C68.9541 55.9445 67.9763 55.614 67.1029 55.3085C66.7467 55.185 66.1543 54.9811 65.9606 55.0093C65.9411 55.0195 65.917 55.04 65.8909 55.0656C65.8832 55.0733 65.8745 55.0831 65.8663 55.0918C65.8453 55.1128 65.8243 55.1358 65.8002 55.163C65.7905 55.1743 65.7807 55.1861 65.771 55.1973C65.7464 55.2276 65.7202 55.2588 65.6931 55.2932C65.6839 55.3045 65.6751 55.3157 65.6659 55.3275C65.6357 55.3665 65.6054 55.4064 65.5747 55.4474C65.5711 55.4526 65.5665 55.4577 65.5629 55.4638L69.3757 62.0678L69.714 59.4731C69.756 59.1543 69.9436 58.8735 70.2214 58.7131C70.4996 58.5516 70.8363 58.5301 71.1336 58.6536L73.5505 59.656Z" fill="#6814C9"/>
</svg>
