<svg width="80" height="80" viewBox="0 0 80 80" fill="none" xmlns="http://www.w3.org/2000/svg">
<path d="M40.3188 7.96387C39.5041 7.96387 38.8869 8.28207 38.1962 8.66236C37.5051 9.04264 36.7766 9.53178 36.0711 10.0154C35.3658 10.4992 34.6796 10.978 34.0905 11.3558C33.5018 11.7336 32.9693 12.004 32.8363 12.039C32.7028 12.076 32.1088 12.1164 31.4099 12.0843C30.7109 12.0474 29.8685 11.9656 29.0154 11.8991C28.1627 11.8336 27.3105 11.7819 26.522 11.7976C25.7338 11.8124 25.0314 11.8494 24.326 12.2548C23.6201 12.6621 23.2389 13.2483 22.8306 13.9227C22.4222 14.5971 22.0444 15.3749 21.6755 16.1468C21.3065 16.9187 20.9425 17.6905 20.6218 18.3127C20.3011 18.9344 19.978 19.4265 19.8805 19.524C19.7829 19.622 19.2889 19.9447 18.6672 20.2654C18.0456 20.5865 17.2731 20.9372 16.5013 21.3062C15.7294 21.6756 14.9516 22.0658 14.2772 22.4741C13.6028 22.882 13.0167 23.2509 12.6092 23.9568C12.2018 24.6627 12.1708 25.3646 12.1546 26.1528C12.1383 26.9409 12.2024 27.8084 12.2689 28.6616C12.3354 29.5143 12.4058 30.357 12.4393 31.056C12.4723 31.755 12.4324 32.3471 12.3959 32.4806C12.36 32.6141 12.1038 33.1481 11.7255 33.7372C11.3472 34.3263 10.8561 35.0125 10.3725 35.7179C9.88874 36.4238 9.41191 37.1371 9.03211 37.8276C8.65233 38.5187 8.31885 39.1507 8.31885 39.9654C8.31885 40.7802 8.65233 41.3973 9.03211 42.088C9.41189 42.7791 9.88873 43.4924 10.3725 44.1977C10.8562 44.9036 11.3478 45.6045 11.7255 46.1931C12.1038 46.7823 12.36 47.3143 12.3959 47.4473C12.4319 47.5807 12.4718 48.16 12.4393 48.859C12.4063 49.558 12.3354 50.4003 12.2689 51.2534C12.2024 52.1061 12.1383 52.9736 12.1546 53.7617C12.1708 54.5499 12.2019 55.2523 12.6092 55.9577C13.0166 56.6636 13.6028 57.0473 14.2772 57.4556C14.9516 57.8635 15.7294 58.2399 16.5013 58.6088C17.2732 58.9782 18.045 59.3289 18.6672 59.6496C19.2889 59.9708 19.7829 60.3082 19.8805 60.4062C19.978 60.5043 20.3011 60.9954 20.6218 61.6175C20.9425 62.2392 21.3065 62.9987 21.6755 63.7706C22.0444 64.5425 22.4222 65.3179 22.8306 65.9927C23.2389 66.667 23.6207 67.2684 24.326 67.6759C25.0319 68.0833 25.7338 68.1158 26.522 68.1325C27.3101 68.1473 28.1628 68.0813 29.0154 68.0182C29.8681 67.9527 30.7109 67.8788 31.4099 67.8458C32.1088 67.8089 32.7034 67.8542 32.8363 67.8911C32.9698 67.9276 33.5018 68.1832 34.0905 68.5616C34.6791 68.9394 35.3657 69.431 36.0711 69.9151C36.7765 70.3988 37.5051 70.8757 38.1962 71.2555C38.8873 71.6358 39.504 71.9687 40.3188 71.9687C41.1335 71.9687 41.7527 71.6358 42.4439 71.2555C43.135 70.8752 43.861 70.3989 44.5664 69.9151C45.2719 69.4314 45.9605 68.9398 46.5491 68.5616C47.1378 68.1837 47.6703 67.9271 47.8033 67.8911C47.9368 67.8542 48.5289 67.8138 49.2279 67.8458C49.9268 67.8828 50.7692 67.9527 51.6223 68.0182C52.475 68.0837 53.3296 68.1493 54.1177 68.1325C54.9059 68.1177 55.6059 68.0808 56.3117 67.6759C57.0176 67.2685 57.4013 66.6671 57.8096 65.9927C58.218 65.3183 58.5958 64.5425 58.9648 63.7706C59.3337 62.9987 59.6977 62.2396 60.0184 61.6175C60.3391 60.9959 60.6622 60.5043 60.7598 60.4062C60.8573 60.3082 61.3489 59.9703 61.971 59.6496C62.5927 59.3285 63.3675 58.9777 64.1389 58.6088C64.9108 58.2393 65.6733 57.864 66.3477 57.4556C67.022 57.0468 67.6211 56.6636 68.0289 55.9577C68.4363 55.2518 68.4693 54.5499 68.4855 53.7617C68.5013 52.9736 68.4377 52.1061 68.3712 51.2534C68.3047 50.4007 68.2343 49.558 68.2008 48.859C68.1678 48.16 68.2077 47.5807 68.2437 47.4473C68.2796 47.3138 68.5338 46.7818 68.9116 46.1931C69.2899 45.604 69.7835 44.9031 70.2672 44.1977C70.7509 43.4918 71.2278 42.7785 71.6076 42.088C71.9873 41.3969 72.3188 40.7802 72.3188 39.9654C72.3188 39.1507 71.9878 38.5186 71.6076 37.8276C71.2278 37.1365 70.7509 36.4232 70.2672 35.7179C69.7835 35.012 69.2899 34.3264 68.9116 33.7372C68.5333 33.1481 68.2791 32.6141 68.2437 32.4806C68.2077 32.3471 68.1678 31.7555 68.2008 31.056C68.2338 30.357 68.3047 29.5147 68.3712 28.6616C68.4377 27.8089 68.5018 26.9414 68.4855 26.1528C68.4698 25.3646 68.4358 24.6628 68.0289 23.9568C67.6215 23.251 67.0225 22.8825 66.3477 22.4741C65.6733 22.0653 64.9104 21.6751 64.1389 21.3062C63.367 20.9368 62.5926 20.586 61.971 20.2654C61.3494 19.9442 60.8573 19.6215 60.7598 19.524C60.6622 19.426 60.3391 18.9349 60.0184 18.3127C59.6977 17.6911 59.3337 16.9187 58.9648 16.1468C58.5958 15.3749 58.218 14.5971 57.8096 13.9227C57.4013 13.2484 57.0176 12.6622 56.3117 12.2548C55.6058 11.8474 54.9063 11.8139 54.1177 11.7976C53.3296 11.7829 52.475 11.8356 51.6223 11.8991C50.7696 11.9646 49.9268 12.0518 49.2279 12.0843C48.5289 12.1213 47.9368 12.076 47.8033 12.039C47.6698 12.0021 47.1378 11.7341 46.5491 11.3558C45.9605 10.978 45.2719 10.4997 44.5664 10.0154C43.861 9.53173 43.1345 9.04208 42.4439 8.66236C41.7528 8.28209 41.1335 7.96387 40.3188 7.96387ZM40.3188 10.1727C40.3291 10.1727 40.8237 10.2914 41.3877 10.6017C41.9517 10.912 42.6241 11.3539 43.3123 11.8258C44.0004 12.2982 44.6989 12.8056 45.3511 13.2243C46.0033 13.643 46.5688 13.9858 47.2323 14.1641C47.8958 14.3424 48.553 14.3149 49.3273 14.2784C50.1016 14.2415 50.9627 14.1725 51.7946 14.108C52.6266 14.0425 53.431 13.9937 54.0748 14.0065C54.7186 14.0213 55.2058 14.1587 55.2146 14.1636C55.2235 14.1686 55.5796 14.5119 55.9131 15.0621C56.2466 15.6133 56.622 16.3477 56.982 17.1009C57.3421 17.8536 57.6958 18.6339 58.051 19.323C58.4066 20.0121 58.7204 20.5915 59.2061 21.0771C59.6918 21.5633 60.2716 21.8771 60.9602 22.2322C61.6488 22.5874 62.429 22.9415 63.1822 23.3011C63.9349 23.6607 64.6575 24.0218 65.2082 24.3548C65.7589 24.6883 66.1146 25.0587 66.12 25.0681C66.1249 25.0749 66.2638 25.5646 66.2771 26.2079C66.2899 26.8517 66.2402 27.6581 66.1756 28.4901C66.1106 29.3221 66.0269 30.1811 65.9904 30.9555C65.954 31.7299 65.9269 32.3866 66.1047 33.05C66.2825 33.7134 66.6426 34.2662 67.0613 34.9183C67.48 35.571 67.9706 36.2817 68.4425 36.97C68.9144 37.6582 69.3735 38.3305 69.6838 38.8946C69.9942 39.4586 70.1104 39.9532 70.1104 39.9635C70.1104 39.9704 69.9937 40.4531 69.6838 41.0172C69.3735 41.5812 68.9144 42.2683 68.4425 42.9565C67.9706 43.6446 67.48 44.3431 67.0613 44.9953C66.6426 45.648 66.2825 46.213 66.1047 46.8765C65.9269 47.5401 65.954 48.1972 65.9904 48.9715C66.0269 49.7458 66.1111 50.5921 66.1756 51.424C66.2407 52.256 66.2904 53.0757 66.2771 53.719C66.2638 54.3628 66.1249 54.85 66.12 54.8588C66.1151 54.8657 65.7589 55.2233 65.2082 55.5568C64.6575 55.8903 63.9353 56.2509 63.1822 56.6105C62.4296 56.9701 61.6493 57.339 60.9602 57.6947C60.2715 58.0498 59.6917 58.3488 59.2061 58.8345C58.7204 59.3207 58.4061 59.9128 58.051 60.602C57.6958 61.2911 57.3421 62.0734 56.982 62.8261C56.622 63.5792 56.2466 64.2989 55.9131 64.8496C55.5796 65.4008 55.224 65.758 55.2146 65.7634C55.2058 65.7683 54.7181 65.9048 54.0748 65.9186C53.431 65.9333 52.6266 65.8831 51.7946 65.8195C50.9626 65.754 50.101 65.6708 49.3273 65.6343C48.5529 65.5974 47.8962 65.5688 47.2323 65.7486C46.5688 65.9269 46.0033 66.2845 45.3511 66.7032C44.6989 67.1219 44.0004 67.6145 43.3123 68.087C42.6241 68.5594 41.9518 69.0007 41.3877 69.311C40.8237 69.6214 40.3291 69.7529 40.3188 69.7529C40.3084 69.7529 39.8139 69.6214 39.2499 69.311C38.6858 69.0027 38.0135 68.5608 37.3253 68.0889C36.6371 67.6165 35.9411 67.124 35.289 66.7052C34.6368 66.286 34.0688 65.9284 33.4053 65.7506C32.7417 65.5723 32.0846 65.5998 31.3103 65.6363C30.536 65.6732 29.6769 65.7565 28.8449 65.8215C28.0129 65.887 27.2084 65.9338 26.5647 65.9205C25.9209 65.9057 25.4337 65.7703 25.4248 65.7654C25.416 65.7604 25.0451 65.4028 24.7116 64.8516C24.3781 64.3009 24.0156 63.5812 23.6555 62.828C23.2959 62.0754 22.9422 61.2931 22.5865 60.604C22.2314 59.9153 21.9196 59.3228 21.4339 58.837C20.9477 58.3508 20.3684 58.0523 19.6798 57.6967C18.9907 57.3415 18.2084 56.973 17.4557 56.613C16.7026 56.2529 15.9823 55.8928 15.4322 55.5588C14.8814 55.2253 14.5253 54.8697 14.5204 54.8608C14.5155 54.8534 14.3765 54.3643 14.3632 53.721C14.3499 53.0771 14.3977 52.2579 14.4623 51.426C14.5273 50.594 14.611 49.7477 14.6475 48.9734C14.6839 48.1991 14.711 47.5424 14.5332 46.8785C14.3554 46.2145 13.9973 45.649 13.5786 44.9968C13.1599 44.3446 12.6692 43.6466 12.1974 42.9585C11.725 42.2703 11.2659 41.5827 10.956 41.0186C10.6457 40.4546 10.529 39.9753 10.529 39.965C10.529 39.9576 10.6457 39.4601 10.9555 38.8961C11.2659 38.332 11.725 37.6597 12.1969 36.9715C12.6688 36.2833 13.1594 35.572 13.5781 34.9198C13.9968 34.2671 14.3549 33.7149 14.5327 33.0515C14.7105 32.388 14.6834 31.7308 14.647 30.957C14.6105 30.1827 14.5263 29.3236 14.4618 28.4916C14.3967 27.6596 14.349 26.8528 14.3627 26.2094C14.376 25.5656 14.515 25.0784 14.5199 25.0695C14.5248 25.0621 14.881 24.6897 15.4317 24.3563C15.9824 24.0228 16.7025 23.6622 17.4552 23.3026C18.2079 22.943 18.9907 22.5888 19.6793 22.2337C20.3679 21.878 20.9478 21.5648 21.4334 21.0786C21.9191 20.5924 22.2309 20.0131 22.5865 19.3245C22.9422 18.6354 23.2954 17.8556 23.6555 17.1024C24.0156 16.3497 24.3781 15.6143 24.7116 15.0636C25.0451 14.5124 25.416 14.17 25.4248 14.1651C25.4337 14.1602 25.9214 14.0208 26.5647 14.008C27.2085 13.9932 28.0129 14.0459 28.8449 14.1094C29.6769 14.175 30.5359 14.2434 31.3103 14.2799C32.0847 14.3168 32.7413 14.3454 33.4053 14.1656C34.0688 13.9873 34.6367 13.6449 35.289 13.2258C35.9412 12.8071 36.6371 12.2992 37.3253 11.8273C38.0134 11.3549 38.6858 10.9135 39.2499 10.6032C39.8139 10.2929 40.3084 10.1742 40.3188 10.1742V10.1727ZM40.3188 18.9092C28.7041 18.9092 19.2622 28.3496 19.2622 39.9646C19.2622 51.5795 28.7046 61.0111 40.3188 61.0111C51.933 61.0111 61.3741 51.5795 61.3741 39.9646C61.3741 28.3496 51.9337 18.9092 40.3188 18.9092ZM40.3188 21.116C45.1314 21.116 49.516 22.914 52.8443 25.8744L46.5816 32.1376V30.2476H41.8251V26.0453H39.6183V30.2481H38.4848C35.4455 30.2481 32.9226 32.6583 32.9226 35.6553C32.9226 38.3926 35.0279 40.6417 37.7091 41.0107L26.2288 52.49C23.2679 49.1635 21.4704 44.7785 21.4704 39.9649C21.4704 29.5428 29.8966 21.1164 40.319 21.1164L40.3188 21.116ZM54.4045 27.4325C57.3669 30.7613 59.1648 35.1493 59.1648 39.9644C59.1648 50.3866 50.741 58.8042 40.3188 58.8042C35.5052 58.8042 31.1177 57.0092 27.7894 54.0502L34.0541 47.786V49.6741H39.6184V53.8763H41.8252V49.6741H42.1592C45.1985 49.6741 47.7126 47.2619 47.7126 44.2649C47.7126 41.5256 45.6107 39.276 42.9282 38.9095L54.4045 27.4325ZM38.4853 32.4539L45.4824 32.4544H46.2652L39.862 38.857H38.4853C36.5908 38.857 35.1298 37.426 35.1298 35.6546C35.1298 33.8827 36.5908 32.4543 38.4853 32.4543V32.4539ZM40.7763 41.0633H42.1595C44.0536 41.0633 45.5061 42.4918 45.5061 44.2637C45.5061 46.0355 44.0534 47.466 42.1595 47.466L35.1623 47.4665H34.3732L40.7763 41.0633Z" fill="#6814C9"/>
</svg>
