<svg width="80" height="80" viewBox="0 0 80 80" fill="none" xmlns="http://www.w3.org/2000/svg">
<path d="M47.0712 16.6639C47.0394 19.6935 45.0912 22.4687 42.1729 23.399C39.35 24.2975 36.1774 23.3354 34.3723 20.9817C32.5116 18.5644 32.4559 15.1611 34.1576 12.6484C35.7719 10.2629 38.8253 9.09401 41.6163 9.76984C44.797 10.5332 47.0553 13.4037 47.0713 16.6639C47.0792 17.6897 48.6695 17.6897 48.6617 16.6639C48.6378 13.1016 46.4431 9.91291 43.1432 8.59295C39.875 7.28093 35.9708 8.20332 33.6092 10.7955C31.1123 13.5308 30.6114 17.6499 32.4164 20.8941C34.1976 24.0907 37.8395 25.7764 41.4257 25.2119C45.5765 24.5598 48.6141 20.8146 48.6618 16.6638C48.6777 15.646 47.0874 15.646 47.0714 16.6638L47.0712 16.6639Z" fill="#6814C9" stroke="#6814C9" stroke-width="0.4"/>
<path d="M70.4097 39.9632C70.3938 42.8179 68.6444 45.4896 65.9647 46.5393C63.1021 47.6684 59.834 46.8096 57.8619 44.464C55.9455 42.1897 55.7467 38.8183 57.2735 36.2896C58.8321 33.7132 61.965 32.3694 64.8991 33.0532C68.1036 33.8007 70.3857 36.6793 70.4096 39.9632C70.4175 40.9889 72.0078 40.9889 72 39.9632C71.9761 36.3611 69.7337 33.1486 66.3861 31.8525C62.9907 30.5325 58.9194 31.6298 56.6294 34.4607C54.3393 37.2994 53.9973 41.3628 55.9296 44.4958C57.8699 47.6446 61.6628 49.227 65.2649 48.416C69.1771 47.5413 71.9682 43.9392 71.9921 39.9633C72.008 38.9375 70.4176 38.9375 70.4096 39.9633L70.4097 39.9632Z" fill="#6814C9" stroke="#6814C9" stroke-width="0.4"/>
<path d="M47.0712 63.341C47.0553 66.1957 45.3059 68.8674 42.6262 69.9171C39.8988 70.9906 36.758 70.2749 34.77 68.1201C32.7344 65.9254 32.3369 62.5539 33.784 59.9298C35.2074 57.3535 38.1973 55.8347 41.1235 56.3436C44.5348 56.9321 47.0475 59.8741 47.0713 63.3411C47.0793 64.3669 48.6696 64.3669 48.6617 63.3411C48.6299 59.6197 46.2364 56.2879 42.7059 55.1032C39.2866 53.9582 35.3824 55.1589 33.1719 57.9897C30.9056 60.9001 30.6989 65.0826 32.7822 68.152C34.794 71.1101 38.4359 72.5731 41.9346 71.7859C45.8468 70.9113 48.6379 67.3091 48.6618 63.3333C48.6697 62.3155 47.0793 62.3155 47.0714 63.3412L47.0712 63.341Z" fill="#6814C9" stroke="#6814C9" stroke-width="0.4"/>
<path d="M23.7414 39.9632C23.7175 42.8736 21.8965 45.5931 19.1373 46.6029C16.2747 47.6446 13.0543 46.7619 11.13 44.4003C9.30117 42.1499 9.08642 38.8819 10.5416 36.393C12.0286 33.8565 15.0423 32.441 17.9366 32.9976C21.2842 33.6337 23.7175 36.5679 23.7414 39.9632C23.7493 40.989 25.3396 40.989 25.3318 39.9632C25.3079 36.2816 22.9542 32.9737 19.4714 31.765C16.0601 30.5723 12.108 31.7332 9.87364 34.572C7.66309 37.379 7.36094 41.3547 9.2216 44.432C11.1142 47.573 14.8276 49.1713 18.4138 48.4556C22.4135 47.6604 25.2999 44.0027 25.3317 39.9632C25.3397 38.9375 23.7493 38.9375 23.7413 39.9632H23.7414Z" fill="#6814C9" stroke="#6814C9" stroke-width="0.4"/>
<path d="M61.4486 47.5488C59.6912 52.5265 56.1766 56.7967 51.6441 59.5002C50.348 60.2715 48.9882 60.9156 47.5728 61.4166C47.1673 61.5597 46.897 61.9573 47.0162 62.3946C47.1276 62.7843 47.5887 63.0944 47.9943 62.9512C53.3855 61.0428 58.0055 57.2896 60.9318 52.3756C61.7587 50.984 62.4426 49.497 62.9832 47.9703C63.1264 47.5648 62.8242 47.1036 62.4266 46.9922C61.9893 46.873 61.5917 47.1433 61.4486 47.5489L61.4486 47.5488Z" fill="#6814C9" stroke="#6814C9" stroke-width="0.4"/>
<path d="M47.5888 18.5091C52.5587 20.2664 56.8367 23.7811 59.5401 28.3056C60.3115 29.6017 60.9556 30.9615 61.4566 32.3769C61.5997 32.7824 61.9973 33.0527 62.4346 32.9335C62.8242 32.8222 63.1344 32.361 62.9912 31.9554C61.0828 26.5722 57.3376 21.9442 52.4155 19.0259C51.024 18.199 49.545 17.5151 48.0183 16.9745C47.6127 16.8313 47.1516 17.1335 47.0402 17.5311C46.913 17.9684 47.1834 18.366 47.5889 18.5091L47.5888 18.5091Z" fill="#6814C9" stroke="#6814C9" stroke-width="0.4"/>
<path d="M18.5403 32.3761C20.2977 27.4062 23.8043 23.1282 28.3368 20.4247C29.625 19.6534 30.9927 19.0093 32.4081 18.5083C32.8136 18.3652 33.084 17.9676 32.9647 17.5303C32.8534 17.1406 32.3922 16.8305 31.9866 16.9736C26.6034 18.8821 21.9834 22.6353 19.0572 27.5493C18.2302 28.9409 17.5543 30.4199 17.0135 31.9546C16.8704 32.3601 17.1726 32.8213 17.5702 32.9327C17.9996 33.0519 18.3971 32.7816 18.5403 32.376L18.5403 32.3761Z" fill="#6814C9" stroke="#6814C9" stroke-width="0.4"/>
<path d="M32.4162 61.4159C27.4385 59.6585 23.1604 56.1439 20.4568 51.6194C19.6855 50.3233 19.0414 48.9635 18.5404 47.5481C18.3973 47.1426 17.9997 46.8722 17.5624 46.9915C17.1727 47.1028 16.8626 47.564 17.0058 47.9696C18.9142 53.3608 22.6674 57.9808 27.5894 60.907C28.981 61.734 30.468 62.4099 31.9947 62.9507C32.4002 63.0938 32.8614 62.7916 32.9728 62.394C33.092 61.9567 32.8217 61.5591 32.4161 61.416L32.4162 61.4159Z" fill="#6814C9" stroke="#6814C9" stroke-width="0.4"/>
</svg>
