<svg width="80" height="80" viewBox="0 0 80 80" fill="none" xmlns="http://www.w3.org/2000/svg">
<path d="M51.8901 28.3087H45.7359C45.3069 28.3087 44.9586 27.9605 44.9586 27.5314C44.9586 27.1024 45.3069 26.7542 45.7359 26.7542H51.8901C52.3191 26.7542 52.6673 27.1024 52.6673 27.5314C52.6673 27.9605 52.3191 28.3087 51.8901 28.3087Z" fill="#6814C9" stroke="#6814C9" stroke-width="0.2"/>
<path d="M70.1893 10.948H9.81685C8.81683 10.948 8.00293 11.7614 8.00293 12.7619V56.0334C8.00293 57.0334 8.81638 57.8473 9.81685 57.8473H26.1009C26.0483 57.953 26.0107 58.0667 26.0107 58.1932V68.4711H21.779C21.3499 68.4711 21.0017 68.8193 21.0017 69.2483C21.0017 69.6774 21.3499 70.0256 21.779 70.0256H58.2269C58.6559 70.0256 59.0042 69.6774 59.0042 69.2483C59.0042 68.8193 58.6559 68.4711 58.2269 68.4711H53.9952V58.1936C53.9952 58.0672 53.958 57.953 53.9049 57.8473H70.189C71.189 57.8473 72.0029 57.0339 72.0029 56.0334V12.7619C72.0029 11.7619 71.1895 10.948 70.189 10.948L70.1893 10.948ZM9.81685 12.5025H70.1905C70.3333 12.5025 70.4494 12.6186 70.4494 12.7615V50.5063L65.9146 50.5067V18.4474C65.9146 17.4554 65.1012 16.649 64.1007 16.649L15.9065 16.6495C14.9064 16.6495 14.0925 17.4559 14.0925 18.4479V50.5072L9.55823 50.5067V12.7619C9.55823 12.6186 9.6743 12.5025 9.81763 12.5025L9.81685 12.5025ZM25.3202 35.7365C25.3202 33.5452 27.1031 31.7638 29.2929 31.7638C31.4828 31.7638 33.2666 33.5457 33.2666 35.7365C33.2666 37.9278 31.4837 39.7092 29.2939 39.7092C27.104 39.7092 25.3202 37.9263 25.3202 35.7365ZM29.2929 45.8946L26.0955 43.7178L27.2769 41.2634H31.3108L32.4922 43.717L29.2929 45.8946ZM24.4037 43.6478C24.3892 43.6779 24.3901 43.7112 24.3798 43.7423C24.3633 43.793 24.3478 43.8409 24.3412 43.8926C24.3351 43.9434 24.337 43.9913 24.3412 44.0407C24.3454 44.0905 24.3497 44.137 24.3619 44.1849C24.3755 44.2338 24.3953 44.278 24.4178 44.324C24.4394 44.3677 24.4615 44.4091 24.4902 44.4486C24.5212 44.4909 24.5588 44.5252 24.5992 44.5595C24.6241 44.5811 24.6396 44.6102 24.6664 44.629L28.8558 47.4791C28.8746 47.4927 28.8953 47.4965 28.915 47.5073C28.9338 47.5176 28.9512 47.5247 28.9709 47.5331C29.0748 47.5806 29.1833 47.613 29.2933 47.613C29.2966 47.613 29.2994 47.6111 29.3027 47.6111C29.4075 47.6102 29.509 47.5811 29.6072 47.5364C29.6312 47.5261 29.6537 47.5167 29.6768 47.5045C29.6942 47.4941 29.7139 47.4899 29.7308 47.4786L33.9202 44.6285C33.9484 44.6088 33.9639 44.5811 33.9874 44.559C34.0278 44.5247 34.065 44.4904 34.0964 44.4481C34.1265 44.4086 34.1481 44.3673 34.1688 44.3236C34.1904 44.278 34.2111 44.2343 34.2247 44.1845C34.2369 44.137 34.2421 44.09 34.2454 44.0402C34.2487 43.9904 34.2506 43.9429 34.2454 43.8922C34.2393 43.8405 34.2238 43.7925 34.2069 43.7418C34.1965 43.7108 34.1975 43.6774 34.1829 43.6473L33.0353 41.2643H34.993C36.2792 41.2643 37.3248 42.2333 37.3248 43.4231V50.5064H21.2597V43.4231C21.2597 42.2332 22.3053 41.2643 23.5915 41.2643H25.5501L24.4037 43.6478ZM34.9945 39.7093H33.1204C34.1651 38.7028 34.8212 37.2976 34.8212 35.7366C34.8212 32.6886 32.3409 30.2093 29.2939 30.2093C26.2469 30.2093 23.7666 32.6896 23.7666 35.7366C23.7666 37.2978 24.4226 38.7037 25.4673 39.7093H23.5932C21.4499 39.7093 19.7064 41.3748 19.7064 43.4227V50.506H15.6472V18.4467C15.6472 18.3123 15.7632 18.2032 15.9061 18.2032H64.1015C64.2444 18.2032 64.3605 18.3123 64.3605 18.4467V50.506H38.8817V43.4227C38.8817 41.3748 37.1387 39.7093 34.9953 39.7093H34.9945ZM52.4407 58.1926V68.4705H27.5659V58.193C27.5659 58.0666 27.5287 57.9524 27.4756 57.8467H52.531C52.4783 57.9524 52.4407 58.0662 52.4407 58.1926V58.1926ZM70.1901 56.2917H9.81769C9.67483 56.2917 9.55876 56.1756 9.55876 56.0327V52.06H70.4497V56.0327C70.4497 56.1756 70.3336 56.2917 70.1903 56.2917H70.1901Z" fill="#6814C9" stroke="#6814C9" stroke-width="0.3"/>
<path d="M50.0434 36.5145C56.0083 36.5145 60.8617 33.1729 60.8617 29.0647C60.8617 24.9561 56.0078 21.6149 50.0434 21.6149C44.0786 21.6144 39.2251 24.957 39.2251 29.0647C39.2251 29.7621 39.3694 30.4496 39.6406 31.1126C39.6001 33.3847 38.5193 34.9599 37.5409 34.9599C37.1119 34.9599 36.7637 35.3081 36.7637 35.7371C36.7637 36.1662 37.1119 36.5144 37.5409 36.5144C43.0194 36.5144 45.3103 36.3414 46.2759 36.0468C47.4804 36.3527 48.7449 36.5144 50.0433 36.5144L50.0434 36.5145ZM50.0434 23.1706C55.1511 23.1706 59.3072 25.8145 59.3072 29.0659C59.3072 32.3173 55.1511 34.9612 50.0434 34.9612C48.785 34.9612 47.5641 34.8005 46.4146 34.4842C46.3813 34.4748 46.3484 34.4823 46.3141 34.4781C46.2779 34.4729 46.2455 34.4565 46.2065 34.4565C46.1848 34.4565 46.1651 34.4649 46.143 34.4668C46.1129 34.4687 46.0838 34.4753 46.0551 34.4814C45.9898 34.495 45.9269 34.5157 45.8676 34.5448C45.8437 34.557 45.8202 34.5664 45.7981 34.581C45.7807 34.5914 45.7619 34.5965 45.7455 34.6078C45.2243 34.7281 43.2623 34.8804 40.1228 34.9372C40.7915 33.941 41.2027 32.5514 41.2027 30.9875C41.2027 30.9865 41.2017 30.9856 41.2017 30.9842C41.2017 30.924 41.1801 30.8648 41.1665 30.8061C41.1552 30.7624 41.1543 30.7182 41.1364 30.6778C41.1364 30.6759 41.1364 30.6735 41.1355 30.6717C40.8991 30.1524 40.7802 29.6124 40.7802 29.0673C40.7798 25.8145 44.9358 23.1706 50.0435 23.1706L50.0434 23.1706Z" fill="#6814C9" stroke="#6814C9" stroke-width="0.2"/>
<path d="M48.1968 32.1956H51.8895C52.3185 32.1956 52.6668 31.8474 52.6668 31.4184C52.6668 30.9888 52.3185 30.6406 51.8895 30.6406H48.1968C47.7678 30.6406 47.4196 30.9888 47.4196 31.4179C47.4196 31.8474 47.7678 32.1956 48.1968 32.1956Z" fill="#6814C9" stroke="#6814C9" stroke-width="0.2"/>
</svg>
