<svg width="80" height="80" viewBox="0 0 80 80" fill="none" xmlns="http://www.w3.org/2000/svg">
<path d="M32 23.0001H48C48.5522 23.0001 49 22.5523 49 22.0001C49 21.4479 48.5522 21.0001 48 21.0001H32C31.4478 21.0001 31 21.4479 31 22.0001C31 22.5523 31.4478 23.0001 32 23.0001Z" fill="#6814C9"/>
<path d="M32 27.0001H43C43.5522 27.0001 44 26.5523 44 26.0001C44 25.4479 43.5522 25.0001 43 25.0001H32C31.4478 25.0001 31 25.4479 31 26.0001C31 26.5523 31.4478 27.0001 32 27.0001Z" fill="#6814C9"/>
<path d="M32 33.0001H48C48.5522 33.0001 49 32.5523 49 32.0001C49 31.4479 48.5522 31.0001 48 31.0001H32C31.4478 31.0001 31 31.4479 31 32.0001C31 32.5523 31.4478 33.0001 32 33.0001Z" fill="#6814C9"/>
<path d="M30.8538 51.4949C31.2341 51.1136 31.4872 50.6239 31.5788 50.0931C31.6698 49.5623 31.5948 49.0158 31.3636 48.5292C31.5149 48.2153 31.6484 47.893 31.7636 47.5644C32.2712 47.3836 32.7105 47.0506 33.0212 46.6109C33.3319 46.1707 33.4993 45.6457 33.4998 45.1069V43.8926C33.4993 43.3538 33.3319 42.8287 33.0212 42.3886C32.7105 41.9488 32.2712 41.6158 31.7636 41.435C31.6484 41.1064 31.5149 40.7841 31.3636 40.4703C31.5948 39.9837 31.6698 39.4372 31.5788 38.9064C31.4872 38.3756 31.2341 37.8859 30.8538 37.5041L29.9948 36.6456C29.6136 36.2648 29.1239 36.0113 28.5926 35.9197C28.0613 35.8287 27.5149 35.9037 27.0279 36.1349C26.7145 35.984 26.3926 35.851 26.0645 35.7358C25.8837 35.2282 25.5506 34.7889 25.1109 34.4782C24.6707 34.1675 24.1457 34.0001 23.6069 33.9996H22.3926C21.8538 34.0001 21.3288 34.1675 20.8886 34.4782C20.4489 34.7889 20.1159 35.2282 19.935 35.7358C19.6069 35.851 19.285 35.984 18.9716 36.1349C18.4846 35.9037 17.9382 35.8287 17.407 35.9197C16.8757 36.0113 16.386 36.2648 16.0047 36.6456L15.1458 37.5046C14.7654 37.8858 14.5123 38.3755 14.4207 38.9064C14.3297 39.4372 14.4047 39.9836 14.6359 40.4703C14.4846 40.7841 14.3511 41.1064 14.2359 41.435C13.7283 41.6158 13.289 41.9488 12.9783 42.3886C12.6676 42.8288 12.5002 43.3537 12.4998 43.8926V45.1069C12.5002 45.6457 12.6676 46.1707 12.9783 46.6109C13.289 47.0506 13.7283 47.3836 14.2359 47.5644C14.3511 47.893 14.4846 48.2153 14.6359 48.5292C14.4047 49.0158 14.3297 49.5622 14.4207 50.093C14.5123 50.6238 14.7654 51.1136 15.1458 51.4949L16.0047 52.3538C16.3859 52.7346 16.8757 52.9882 17.407 53.0797C17.9382 53.1708 18.4846 53.0958 18.9716 52.8645C19.285 53.0154 19.6069 53.1484 19.935 53.2636C20.1158 53.7712 20.4489 54.2105 20.8886 54.5212C21.3288 54.8319 21.8538 54.9993 22.3926 54.9998H23.6069C24.1457 54.9993 24.6707 54.8319 25.1109 54.5212C25.5506 54.2105 25.8837 53.7712 26.0645 53.2636C26.3926 53.1484 26.7145 53.0154 27.0279 52.8645C27.5149 53.0958 28.0614 53.1708 28.5926 53.0797C29.1238 52.9882 29.6135 52.7346 29.9948 52.3538L30.8538 51.4949ZM29.4395 50.0806L28.581 50.9391V50.9395C28.4672 51.0534 28.3127 51.1172 28.1515 51.1172C27.9904 51.1172 27.8359 51.0534 27.7221 50.9395L27.2198 50.4369C26.3252 51.0748 25.2976 51.5007 24.214 51.6828V52.3926C24.214 52.7279 23.9421 52.9998 23.6069 52.9998H22.3926C22.0573 52.9998 21.7854 52.7279 21.7854 52.3926V51.6828C20.702 51.5006 19.6743 51.0748 18.7796 50.4369L18.277 50.9395H18.2774C18.1636 51.0534 18.0091 51.1172 17.8479 51.1172C17.6868 51.1172 17.5323 51.0534 17.4185 50.9395L16.56 50.081C16.3229 49.8435 16.3229 49.4592 16.56 49.2221L17.0627 48.7199C16.4247 47.8253 15.9988 46.7976 15.8167 45.7141H15.1069C14.9457 45.7141 14.7913 45.6502 14.6774 45.5364C14.5636 45.4226 14.4998 45.2681 14.4998 45.1069V43.8926C14.4998 43.7315 14.5636 43.577 14.6774 43.4632C14.7913 43.3493 14.9458 43.2855 15.1069 43.2855H15.8167C15.9989 42.202 16.4248 41.1743 17.0627 40.2797L16.56 39.777V39.7774C16.3229 39.5404 16.3229 39.1556 16.56 38.9185L17.4185 38.06C17.5323 37.9462 17.6868 37.8824 17.8479 37.8824C18.0091 37.8824 18.1636 37.9462 18.2774 38.06L18.7796 38.5627C19.6743 37.9248 20.7019 37.4989 21.7854 37.3168V36.607C21.7854 36.2717 22.0573 35.9998 22.3926 35.9998H23.6069C23.9421 35.9998 24.214 36.2717 24.214 36.607V37.3168C25.2975 37.4989 26.3252 37.9248 27.2198 38.5627L27.7225 38.06H27.7221C27.8359 37.9462 27.9904 37.8824 28.1515 37.8824C28.3127 37.8824 28.4672 37.9462 28.581 38.06L29.4395 38.9185C29.6765 39.1556 29.6765 39.5404 29.4395 39.7774L28.9368 40.2797C29.5747 41.1743 30.0006 42.202 30.1827 43.2855H30.8926C31.0537 43.2855 31.2082 43.3493 31.322 43.4632C31.4359 43.577 31.4997 43.7315 31.4997 43.8926V45.1069C31.4997 45.2681 31.4359 45.4225 31.322 45.5364C31.2082 45.6502 31.0537 45.7141 30.8926 45.7141H30.1827C30.0006 46.7976 29.5747 47.8253 28.9368 48.7199L29.4395 49.2221C29.6765 49.4592 29.6765 49.8436 29.4395 50.081V50.0806Z" fill="#6814C9"/>
<path d="M23.0001 40.0001C21.8068 40.0001 20.6621 40.4742 19.8179 41.3179C18.9741 42.1621 18.5001 43.3067 18.5001 44.5001C18.5001 45.6935 18.9742 46.8381 19.8179 47.6823C20.6621 48.526 21.8067 49.0001 23.0001 49.0001C24.1934 49.0001 25.338 48.526 26.1822 47.6823C27.026 46.8381 27.5001 45.6935 27.5001 44.5001C27.4987 43.3072 27.0242 42.1631 26.1804 41.3198C25.3371 40.476 24.1929 40.0015 23.0001 40.0001ZM23.0001 47.0001C22.3371 47.0001 21.701 46.7367 21.2322 46.268C20.7634 45.7992 20.5 45.1631 20.5 44.5001C20.5 43.8371 20.7634 43.201 21.2322 42.7322C21.7009 42.2634 22.3371 42.0001 23.0001 42.0001C23.663 42.0001 24.2991 42.2635 24.7679 42.7322C25.2367 43.201 25.5001 43.8371 25.5001 44.5001C25.4992 45.163 25.2358 45.7983 24.767 46.2671C24.2983 46.7358 23.663 46.9992 23.0001 47.0001L23.0001 47.0001Z" fill="#6814C9"/>
<path d="M69 25.0001H61V23.9166C60.9987 23.8702 60.9938 23.8242 60.9862 23.7787C60.9839 23.7621 60.9844 23.7452 60.9813 23.7287C60.9665 23.6532 60.9433 23.5795 60.9116 23.5095C60.9098 23.5054 60.9098 23.5014 60.908 23.4979L58 17.1969V16C57.9992 15.2045 57.6826 14.442 57.1206 13.8795C56.5581 13.3174 55.7956 13.0009 55 13H25.0001C24.2045 13.0009 23.442 13.3174 22.8795 13.8795C22.3174 14.442 22.0009 15.2045 22 16V25H11C10.2045 25.0009 9.44198 25.3174 8.87946 25.8795C8.31741 26.442 8.00089 27.2045 8 28.0001V60C8.00089 60.7955 8.31741 61.5581 8.87946 62.1206C9.44196 62.6826 10.2045 62.9992 11 63H39V65H31C30.4478 65 30 65.4478 30 66C30 66.5523 30.4478 67 31 67H49C49.5522 67 50 66.5523 50 66C50 65.4478 49.5522 65 49 65H41V63H69C69.7955 62.9992 70.558 62.6826 71.1205 62.1206C71.6826 61.5581 71.9991 60.7956 72 60V28.0001C71.9991 27.2045 71.6826 26.442 71.1205 25.8795C70.558 25.3174 69.7955 25.0009 69 25L69 25.0001ZM55 45.4161V24.9155H59V45.4161H55ZM59 47.4161V50.4995H55V47.4161H59ZM58.4371 22.9155H55.563L57 19.8017L58.4371 22.9155ZM70.0005 59.9989C70 60.5511 69.5527 60.9985 69.0005 60.9989H11.0005C10.4483 60.9985 10.001 60.5511 10.0005 59.9989V58.9989H70.0005V59.9989ZM70.0005 56.9989H10.0005V27.9989C10.001 27.4467 10.4483 26.9994 11.0005 26.9989H22.0005V32.023C22.1309 32.0119 22.2612 31.9989 22.3934 31.9989H23.6072C23.7398 31.9989 23.8697 32.0119 24.0001 32.023L24.0005 15.9991C24.001 15.4468 24.4483 14.9995 25.0005 14.9991H55.0005C55.5527 14.9995 56 15.4468 56.0005 15.9991V17.196L53.0925 23.4969C53.0907 23.5009 53.0907 23.5049 53.0889 23.5085C53.0572 23.5786 53.034 23.6522 53.0193 23.7277C53.0161 23.7442 53.0166 23.7612 53.0144 23.7777C53.0068 23.8232 53.0019 23.8692 53.0005 23.9156V50.4996C53.001 51.03 53.2121 51.5384 53.5871 51.913C53.9617 52.288 54.4702 52.4991 55.0005 52.4996H55.8612C55.684 52.8081 55.3563 52.9982 55.0005 52.9996H32.1777L31.4089 53.7683H31.4085C30.7955 54.3822 30.0205 54.8094 29.1741 54.9995H55.0003C55.7088 54.9982 56.3936 54.7469 56.9343 54.2893C57.4753 53.8317 57.8365 53.1978 57.9552 52.4996H59.0003C59.5307 52.4991 60.0392 52.2879 60.4137 51.913C60.7887 51.5384 60.9999 51.0299 61.0003 50.4996V27.0002H69.0003C69.5525 27.0006 69.9999 27.448 70.0003 28.0002L70.0005 56.9989Z" fill="#6814C9"/>
<path d="M44 36.0001C44 35.4479 43.5522 35.0001 43 35.0001H32C31.7781 35.001 31.5634 35.076 31.3893 35.2135C31.3955 35.2198 31.4027 35.2251 31.4089 35.2314L32.2692 36.0916V36.0912C32.5402 36.3635 32.7763 36.6689 32.971 37.0001H43C43.5522 37.0001 44 36.5523 44 36.0001L44 36.0001Z" fill="#6814C9"/>
<path d="M48 41.0001H34.4675C34.9371 41.5809 35.259 42.2675 35.4045 43.0001H47.9999C48.5522 43.0001 48.9999 42.5523 48.9999 42.0001C48.9999 41.4479 48.5522 41.0001 47.9999 41.0001H48Z" fill="#6814C9"/>
<path d="M43 45.0001H35.5V45.1072C35.4978 45.7608 35.3554 46.4058 35.0826 47H43C43.5522 47 44 46.5522 44 46C44 45.4478 43.5522 45 43 45L43 45.0001Z" fill="#6814C9"/>
</svg>
