<svg width="80" height="80" viewBox="0 0 80 80" fill="none" xmlns="http://www.w3.org/2000/svg">
<path d="M21.7143 35.4285C25.4959 35.4285 28.5714 32.353 28.5714 28.5714C28.5714 24.7898 25.4959 21.7142 21.7143 21.7142C17.9326 21.7142 14.8571 24.7898 14.8571 28.5714C14.8571 32.353 17.9326 35.4285 21.7143 35.4285ZM21.7143 23.9999C24.2352 23.9999 26.2857 26.0504 26.2857 28.5714C26.2857 31.0923 24.2352 33.1428 21.7143 33.1428C19.1933 33.1428 17.1428 31.0923 17.1428 28.5714C17.1428 26.0504 19.1933 23.9999 21.7143 23.9999Z" fill="#6814C9"/>
<path d="M58.2857 35.4285C62.0673 35.4285 65.1429 32.353 65.1429 28.5714C65.1429 24.7898 62.0673 21.7142 58.2857 21.7142C54.5041 21.7142 51.4286 24.7898 51.4286 28.5714C51.4286 32.353 54.5041 35.4285 58.2857 35.4285ZM58.2857 23.9999C60.8067 23.9999 62.8572 26.0504 62.8572 28.5714C62.8572 31.0923 60.8067 33.1428 58.2857 33.1428C55.7648 33.1428 53.7143 31.0923 53.7143 28.5714C53.7143 26.0504 55.7648 23.9999 58.2857 23.9999Z" fill="#6814C9"/>
<path d="M69.7143 37.7142V52.5714C69.7143 54.4617 68.1761 55.9999 66.2857 55.9999V43.4285C66.2857 40.2775 63.7224 37.7142 60.5714 37.7142H54.8571C54.2265 37.7142 53.7143 38.2265 53.7143 38.8571V45.7142H44.5714C43.9408 45.7142 43.4286 46.2265 43.4286 46.8571V50.2857H36.5714V46.8571C36.5714 46.2265 36.0592 45.7142 35.4286 45.7142H26.2857V38.8571C26.2857 38.2265 25.7735 37.7142 25.1429 37.7142H19.4286C16.2776 37.7142 13.7143 40.2775 13.7143 43.4285V55.9999C11.8239 55.9999 10.2857 54.4617 10.2857 52.5714V37.7142H8V52.5714C8 54.9087 9.41375 56.9163 11.4286 57.801V71.9998H13.7143V58.2855H25.1429V70.857C25.1429 71.4876 25.6551 71.9998 26.2857 71.9998H32V52.5712H48V71.9998H53.7143C54.3449 71.9998 54.8571 71.4876 54.8571 70.857V58.2855H66.2857V71.9998H68.5714V57.801C70.5863 56.9163 72 54.9086 72 52.5714V37.7142H69.7143ZM30.8571 50.2857H21.7143V43.4285H19.4286V51.4285C19.4286 52.0591 19.9408 52.5714 20.5714 52.5714H28.5714C29.201 52.5714 29.7143 53.0846 29.7143 53.7142V69.7142H27.4286V57.1428C27.4286 56.5122 26.9163 55.9999 26.2857 55.9999H16V43.4285C16 41.5382 17.5382 39.9999 19.4286 39.9999H24V46.8571C24 47.4877 24.5122 47.9999 25.1429 47.9999H34.2857V50.2857H30.8571ZM53.7143 55.9999C53.0837 55.9999 52.5714 56.5122 52.5714 57.1428V69.7142H50.2857V53.7142C50.2857 53.0846 50.799 52.5714 51.4286 52.5714H59.4286C60.0592 52.5714 60.5714 52.0591 60.5714 51.4285V43.4285H58.2857V50.2857H45.7143V47.9999H54.8571C55.4878 47.9999 56 47.4877 56 46.8571V39.9999H60.5714C62.4618 39.9999 64 41.5382 64 43.4285V55.9999H53.7143Z" fill="#6814C9"/>
<path d="M29.7143 19.4286V22.8571C29.7143 23.3495 30.0286 23.7852 30.4959 23.9418C30.6148 23.9806 30.7372 24 30.8571 24C31.2102 24 31.551 23.8352 31.7714 23.5429L34.8571 19.4286H43.4286C45.3189 19.4286 46.8571 17.8904 46.8571 16V11.4286C46.8571 9.53822 45.3189 8 43.4286 8H29.7143C27.8239 8 26.2857 9.53822 26.2857 11.4286V16C26.2857 17.8904 27.8239 19.4286 29.7143 19.4286V19.4286ZM28.5714 11.4286C28.5714 10.799 29.0847 10.2857 29.7143 10.2857H43.4286C44.0581 10.2857 44.5714 10.799 44.5714 11.4286V16C44.5714 16.6296 44.0581 17.1429 43.4286 17.1429H34.2857C33.9255 17.1429 33.5872 17.3122 33.3714 17.6L32 19.4286V18.2857C32 17.6551 31.4877 17.1429 30.8571 17.1429H29.7143C29.0847 17.1429 28.5714 16.6296 28.5714 16V11.4286Z" fill="#6814C9"/>
<path d="M30.8572 12.5714H42.2857V14.8571H30.8572V12.5714Z" fill="#6814C9"/>
<path d="M38.8571 36.5714H45.7143V38.8571H38.8571V36.5714Z" fill="#6814C9"/>
<path d="M37.7143 32C35.8239 32 34.2857 33.5382 34.2857 35.4286V40C34.2857 41.8904 35.8239 43.4286 37.7143 43.4286H46.8571C48.7475 43.4286 50.2857 41.8904 50.2857 40V39.2036L52.3796 36.0628C52.6137 35.7117 52.6357 35.2617 52.4367 34.8903C52.2377 34.5179 51.8505 34.2857 51.4285 34.2857H50.0903C49.6183 32.9556 48.3474 32 46.8571 32L37.7143 32ZM48 35.4286C48 36.0592 48.5122 36.5715 49.1428 36.5715H49.2923L48.1918 38.223C48.0673 38.4103 48 38.6322 48 38.8572V40.0001C48 40.6297 47.4867 41.1429 46.8571 41.1429H37.7143C37.0847 41.1429 36.5714 40.6297 36.5714 40.0001V35.4287C36.5714 34.7991 37.0847 34.2858 37.7143 34.2858H46.8571C47.4867 34.2858 48 34.7991 48 35.4287L48 35.4286Z" fill="#6814C9"/>
</svg>
