<svg width="80" height="80" viewBox="0 0 80 80" fill="none" xmlns="http://www.w3.org/2000/svg">
<path d="M71.966 24.7866C71.966 22.8941 70.4266 21.3546 68.534 21.3546L50.6517 21.3551V16.7396C50.6517 14.1263 48.5252 12 45.9121 12H34.0871C31.4738 12 29.3475 14.1264 29.3475 16.7396V21.3551H11.4676C9.57459 21.3551 8.03464 22.8936 8.03464 24.7833L8 41.1077C7.99952 41.6374 8.30116 42.1209 8.77743 42.3518C9.50579 42.705 10.2553 43.0311 11.0087 43.3544V65.567C11.0087 67.4585 12.5481 68.999 14.4407 68.999H65.5593C67.4519 68.999 68.9913 67.4595 68.9913 65.567V43.0219C69.763 42.6654 70.5232 42.2964 71.2639 41.9058C71.7176 41.6667 72.0014 41.1952 72 40.6829L71.966 24.7866ZM32.1064 16.7396C32.1064 15.647 32.9954 14.759 34.087 14.759H45.9125C46.9862 14.759 47.8931 15.6658 47.8931 16.7396V21.3551H32.1068L32.1064 16.7396ZM66.2318 65.5675C66.2318 65.9259 65.9172 66.2405 65.5588 66.2405L14.4402 66.241C14.0755 66.241 13.7671 65.9326 13.7671 65.568V44.4491C19.7715 46.6538 26.4806 47.9769 33.7949 48.3825V50.2962C33.7949 51.6837 34.924 52.8128 36.3115 52.8128H43.6874C45.0744 52.8128 46.2025 51.6832 46.2025 50.2962V48.3618C53.6131 47.9115 60.3237 46.5139 66.2303 44.1966V65.568L66.2318 65.5675ZM36.5535 50.0547V45.4782H43.445V50.0547H36.5535ZM46.2035 45.5883V45.2381C46.2035 43.8492 45.0753 42.7201 43.6884 42.7201H36.3115C34.9241 42.7201 33.795 43.8497 33.795 45.2381V45.6181C25.1548 45.1231 17.409 43.3223 10.7597 40.2391L10.792 24.7866C10.792 24.422 11.1008 24.1136 11.4664 24.1136H68.5336C68.8982 24.1136 69.2066 24.421 69.2066 24.7886L69.2383 39.8445C62.7491 43.1139 55.0027 45.0344 46.2031 45.5877L46.2035 45.5883Z" fill="#6814C9"/>
</svg>
