<svg width="80" height="80" viewBox="0 0 80 80" fill="none" xmlns="http://www.w3.org/2000/svg">
<path d="M36.9425 12.9016C36.9425 12.2141 37.5038 11.653 38.1911 11.653C38.8785 11.653 39.4397 12.2142 39.4397 12.9016C39.4397 13.5889 38.8785 14.1502 38.1911 14.1502C37.5033 14.1502 36.9425 13.5889 36.9425 12.9016ZM75.9721 28.3164L63.3813 50.1244V68.1909C63.3813 70.2913 61.6726 71.9995 59.5727 71.9995L16.8091 72C14.7087 72 13.0005 70.2913 13.0005 68.1914L13 17.0978C13 14.9974 14.7087 13.2883 16.8086 13.2883H26.4672L26.4677 12.6419C26.4677 12.0717 26.9296 11.6098 27.4997 11.6098H32.8498C33.7109 9.44916 35.8033 8 38.1905 8C40.5776 8 42.6699 9.44916 43.5311 11.6098H48.8812C49.4514 11.6098 49.9133 12.0717 49.9133 12.6419V13.2879H59.5719C61.6723 13.2879 63.3805 14.9965 63.3805 17.0973V30.8332L67.6174 23.4943C68.1758 22.5268 69.0798 21.8342 70.1627 21.5436C71.2456 21.2531 72.3747 21.4014 73.3422 21.9598L74.4364 22.5912C75.404 23.1496 76.0965 24.0536 76.3871 25.1365C76.6776 26.2199 76.5303 27.3489 75.9719 28.3165L75.9721 28.3164ZM49.913 15.352V17.1506H58.4854C59.0556 17.1506 59.5175 17.6124 59.5175 18.1826V37.5232L61.316 34.4087V17.0966C61.316 16.1347 60.5335 15.3522 59.5716 15.3522H49.913L49.913 15.352ZM53.4974 57.5962L56.966 55.5938L53.4974 53.5914V57.5962ZM57.4533 41.0989V19.2138H49.9129V19.8598C49.9129 20.43 49.451 20.8919 48.8808 20.8919H27.4996C26.9294 20.8919 26.4675 20.43 26.4675 19.8598V19.2138H18.9272V66.0708H57.4529V57.6957L52.9809 60.2778C52.8213 60.37 52.6429 60.4162 52.4649 60.4162C52.311 60.4162 52.1575 60.3795 52.0157 60.3107H36.6696C36.0994 60.3107 35.6375 59.8488 35.6375 59.2787C35.6375 58.7085 36.0994 58.2466 36.6696 58.2466H51.4324V55.5275H36.6696C36.0994 55.5275 35.6375 55.0656 35.6375 54.4954C35.6375 53.9253 36.0994 53.4634 36.6696 53.4634H51.4324V51.8033C51.4324 51.6239 51.4809 51.4426 51.5708 51.2873L57.4533 41.0989ZM28.5315 18.8281H47.8493V13.673H42.7798C42.3033 13.673 41.8881 13.3462 41.7765 12.8824C41.3763 11.2223 39.9021 10.0631 38.1911 10.0631C36.4806 10.0631 35.0059 11.2227 34.6058 12.8824C34.4942 13.3457 34.0789 13.673 33.6024 13.673H28.5329L28.5334 18.8281H28.5315ZM61.3163 53.6993C61.3163 53.6993 59.925 56.109 59.925 56.1095C59.8139 56.2795 59.6859 56.4076 59.5178 56.5041V67.1034C59.5178 67.6736 59.0559 68.1355 58.4857 68.1355H17.8952C17.3251 68.1355 16.8632 67.6736 16.8632 67.1034V18.1818C16.8632 17.6116 17.3251 17.1497 17.8952 17.1497H26.4676V15.3511H16.809C15.8471 15.3511 15.0645 16.1336 15.0645 17.0956V68.1892C15.0645 69.1512 15.8471 69.9337 16.809 69.9337H59.5727C60.5346 69.9337 61.3171 69.1512 61.3171 68.1892L61.3163 53.6993ZM73.4057 24.3799L72.3115 23.7485C71.8214 23.466 71.2493 23.3911 70.6985 23.538C70.1481 23.6858 69.6895 24.0366 69.4069 24.5267L53.8764 51.4247L58.6539 54.1829L74.1845 27.2837C74.7707 26.2686 74.4213 24.9654 73.4057 24.3796V24.3799ZM25.3567 34.1101C25.5578 34.3111 25.8224 34.4123 26.0865 34.4123C26.3346 34.4123 26.5828 34.3238 26.7796 34.1444L32.0501 29.3612C32.472 28.978 32.5035 28.3254 32.1202 27.903C31.737 27.4812 31.0844 27.4496 30.662 27.8329L26.1199 31.955L24.6453 30.4804C24.2423 30.0773 23.5888 30.0773 23.1858 30.4804C22.7828 30.8834 22.7827 31.5369 23.1858 31.9399L25.3567 34.1101ZM52.4657 32.2343H36.6699C36.0997 32.2343 35.6378 32.6962 35.6378 33.2664C35.6378 33.8366 36.0997 34.2985 36.6699 34.2985H52.4657C53.0358 34.2985 53.4977 33.8366 53.4977 33.2664C53.4977 32.6962 53.0358 32.2343 52.4657 32.2343ZM36.6699 29.5153H52.4657C53.0358 29.5153 53.4977 29.0534 53.4977 28.4832C53.4977 27.913 53.0358 27.4511 52.4657 27.4511L36.6699 27.4507C36.0997 27.4507 35.6378 27.9125 35.6378 28.4827C35.6378 29.0534 36.0997 29.5153 36.6699 29.5153V29.5153ZM52.4657 45.2399H36.6699C36.0997 45.2399 35.6378 45.7018 35.6378 46.272C35.6378 46.8421 36.0997 47.304 36.6699 47.304L52.4657 47.3045C53.0358 47.3045 53.4977 46.8426 53.4977 46.2724C53.4977 45.7018 53.0358 45.2399 52.4657 45.2399ZM52.4657 40.4567H36.6699C36.0997 40.4567 35.6378 40.9186 35.6378 41.4888C35.6378 42.0589 36.0997 42.5208 36.6699 42.5208L52.4657 42.5213C53.0358 42.5213 53.4977 42.0594 53.4977 41.4892C53.4977 40.9186 53.0358 40.4567 52.4657 40.4567V40.4567ZM30.6626 40.7246L26.1204 44.8467L24.6458 43.3721C24.2428 42.9691 23.5893 42.9691 23.1863 43.3721C22.7833 43.7751 22.7833 44.4286 23.1863 44.8316L25.3559 47.0012C25.5569 47.2023 25.8215 47.3035 26.0857 47.3035C26.3338 47.3035 26.5819 47.215 26.7787 47.0356L32.0492 42.2524C32.4711 41.8691 32.5027 41.2165 32.1203 40.7942C31.7376 40.3728 31.085 40.3412 30.6626 40.7245L30.6626 40.7246ZM30.6626 53.7313L26.1204 57.8533L24.6458 56.3787C24.2428 55.9757 23.5893 55.9757 23.1863 56.3787C22.7833 56.7818 22.7833 57.4353 23.1863 57.8383L25.3559 60.0079C25.5569 60.2089 25.8215 60.3101 26.0857 60.3101C26.3338 60.3101 26.5819 60.2216 26.7787 60.0422L32.0492 55.259C32.4711 54.8758 32.5027 54.2232 32.1203 53.8008C31.7376 53.3799 31.085 53.3479 30.6626 53.7311L30.6626 53.7313Z" fill="#6814C9"/>
</svg>
