<svg width="128" height="127" viewBox="0 0 128 127" fill="none" xmlns="http://www.w3.org/2000/svg">
<rect width="128" height="126.995" rx="63.4974" fill="#61DAFB"/>
<path d="M96 63.5039C96 59.2642 90.6906 55.2462 82.5504 52.7546C84.4289 44.4578 83.594 37.8569 79.9152 35.7436C79.0673 35.2479 78.0758 35.013 76.9931 35.013V37.9221C77.5931 37.9221 78.0758 38.0395 78.4802 38.2613C80.2544 39.2788 81.0241 43.1533 80.424 48.1366C80.2805 49.3628 80.0457 50.6543 79.7587 51.9719C77.2018 51.3457 74.4101 50.863 71.4749 50.5499C69.7138 48.1366 67.8875 45.945 66.0481 44.0273C70.3009 40.0746 74.2927 37.9091 77.0061 37.9091V35C73.4187 35 68.7224 37.5569 63.9739 41.9923C59.2254 37.583 54.5291 35.0522 50.9417 35.0522V37.9613C53.6421 37.9613 57.647 40.1137 61.8997 44.0404C60.0734 45.958 58.247 48.1366 56.512 50.5499C53.5638 50.863 50.7721 51.3457 48.2152 51.9849C47.9152 50.6804 47.6934 49.415 47.5369 48.2018C46.9238 43.2185 47.6804 39.3441 49.4415 38.3135C49.8329 38.0787 50.3416 37.9743 50.9417 37.9743V35.0652C49.8459 35.0652 48.8545 35.3 47.9935 35.7958C44.3278 37.9091 43.5059 44.4969 45.3975 52.7676C37.2833 55.2723 32 59.2772 32 63.5039C32 67.7436 37.3094 71.7615 45.4497 74.2532C43.5711 82.5499 44.406 89.1508 48.0848 91.2642C48.9327 91.7599 49.9242 91.9947 51.02 91.9947C54.6074 91.9947 59.3037 89.4378 64.0522 85.0024C68.8007 89.4117 73.4969 91.9425 77.0844 91.9425C78.1802 91.9425 79.1716 91.7077 80.0326 91.212C83.6983 89.0987 84.5202 82.5108 82.6286 74.2401C90.7167 71.7485 96 67.7305 96 63.5039ZM79.0151 54.8027C78.5324 56.4855 77.9323 58.2205 77.254 59.9556C76.7191 58.9119 76.1582 57.8683 75.545 56.8247C74.945 55.7811 74.3058 54.7636 73.6665 53.7721C75.519 54.0461 77.3062 54.3852 79.0151 54.8027ZM73.0404 68.6959C72.0228 70.457 70.9792 72.1268 69.8965 73.6792C67.9527 73.8488 65.9829 73.9401 64 73.9401C62.0302 73.9401 60.0603 73.8488 58.1296 73.6922C57.0469 72.1398 55.9902 70.4831 54.9727 68.735C53.9812 67.0261 53.0811 65.2911 52.2593 63.543C53.0681 61.7949 53.9813 60.0469 54.9596 58.338C55.9772 56.5768 57.0208 54.9071 58.1035 53.3547C60.0473 53.1851 62.0171 53.0938 64 53.0938C65.9698 53.0938 67.9397 53.1851 69.8704 53.3416C70.9531 54.894 72.0098 56.5508 73.0273 58.2988C74.0188 60.0077 74.9189 61.7428 75.7407 63.4908C74.9189 65.2389 74.0188 66.987 73.0404 68.6959ZM77.254 67C77.9584 68.7481 78.5585 70.4961 79.0542 72.192C77.3453 72.6095 75.545 72.9617 73.6796 73.2356C74.3188 72.2311 74.958 71.2006 75.5581 70.1439C76.1582 69.1003 76.7191 68.0436 77.254 67ZM64.0261 80.9193C62.8129 79.6669 61.5997 78.2711 60.3995 76.7448C61.5736 76.797 62.7737 76.8361 63.987 76.8361C65.2132 76.8361 66.4264 76.81 67.6135 76.7448C66.4395 78.2711 65.2263 79.6669 64.0261 80.9193ZM54.3204 73.2356C52.468 72.9617 50.6808 72.6225 48.9719 72.2051C49.4545 70.5222 50.0546 68.7872 50.733 67.0522C51.2678 68.0958 51.8288 69.1394 52.4419 70.183C53.055 71.2267 53.6812 72.2442 54.3204 73.2356ZM63.9609 46.0885C65.1741 47.3408 66.3873 48.7366 67.5874 50.2629C66.4134 50.2108 65.2132 50.1716 64 50.1716C62.7737 50.1716 61.5605 50.1977 60.3734 50.2629C61.5475 48.7366 62.7607 47.3408 63.9609 46.0885ZM54.3074 53.7721C53.6682 54.7766 53.0289 55.8072 52.4289 56.8638C51.8288 57.9075 51.2678 58.9511 50.733 59.9947C50.0285 58.2466 49.4285 56.4986 48.9327 54.8027C50.6417 54.3983 52.4419 54.0461 54.3074 53.7721ZM42.5014 70.1048C37.8834 68.1349 34.896 65.552 34.896 63.5039C34.896 61.4558 37.8834 58.8598 42.5014 56.903C43.6233 56.4203 44.8496 55.9898 46.115 55.5854C46.8585 58.1423 47.8369 60.8035 49.0501 63.53C47.85 66.2434 46.8846 68.8916 46.1541 71.4354C44.8626 71.031 43.6364 70.5874 42.5014 70.1048ZM49.5198 88.7464C47.7456 87.7289 46.976 83.8545 47.576 78.8712C47.7195 77.6449 47.9543 76.3534 48.2413 75.0359C50.7982 75.662 53.5899 76.1447 56.5251 76.4578C58.2862 78.8712 60.1125 81.0628 61.9519 82.9804C57.6991 86.9331 53.7073 89.0987 50.9939 89.0987C50.4068 89.0856 49.9111 88.9682 49.5198 88.7464ZM80.4631 78.8059C81.0762 83.7892 80.3196 87.6637 78.5585 88.6942C78.1671 88.9291 77.6584 89.0334 77.0583 89.0334C74.3579 89.0334 70.353 86.881 66.1003 82.9543C67.9266 81.0367 69.753 78.8581 71.488 76.4448C74.4362 76.1317 77.2279 75.649 79.7848 75.0098C80.0848 76.3274 80.3196 77.5927 80.4631 78.8059ZM85.4855 70.1048C84.3636 70.5874 83.1374 71.0179 81.872 71.4223C81.1284 68.8655 80.15 66.2042 78.9368 63.4778C80.137 60.7644 81.1023 58.1162 81.8329 55.5724C83.1243 55.9768 84.3506 56.4203 85.4986 56.903C90.1166 58.8728 93.104 61.4558 93.104 63.5039C93.0909 65.552 90.1035 68.148 85.4855 70.1048Z" fill="white"/>
<path d="M63.9869 69.4656C67.2795 69.4656 69.9486 66.7965 69.9486 63.5039C69.9486 60.2114 67.2795 57.5422 63.9869 57.5422C60.6944 57.5422 58.0253 60.2114 58.0253 63.5039C58.0253 66.7965 60.6944 69.4656 63.9869 69.4656Z" fill="white"/>
</svg>
