<svg width="451" height="250" viewBox="0 0 451 250" fill="none" xmlns="http://www.w3.org/2000/svg">
<g clip-path="url(#clip0_143_277)">
<path d="M232.071 248.721C224.941 249.773 217.726 250.123 210.528 249.764C193.171 248.886 176.102 243.826 161.515 234.315C155.048 230.097 148.878 224.916 145.53 217.955C140.986 208.503 142.575 196.536 149.064 188.303C151.431 185.334 154.342 182.845 157.641 180.97C158.13 180.693 158.629 180.427 159.134 180.171C164.632 177.401 170.806 176.268 176.926 176.907C187.331 178.046 196.934 184.416 202.482 193.314C207.424 201.249 209.146 210.612 210.161 219.995C210.352 221.763 210.517 223.536 210.676 225.299C209.792 230.406 208.402 235.412 206.526 240.242C206.431 240.478 206.352 240.72 206.292 240.967C207.355 243.278 208.366 245.61 209.327 247.964C210.229 248.455 211.239 248.711 212.265 248.71H232.029L232.071 248.721Z" fill="#F2F2F2"/>
<path d="M208.917 249.173C208.786 249.232 208.645 249.264 208.501 249.267C208.358 249.27 208.215 249.245 208.082 249.192C207.948 249.14 207.827 249.061 207.724 248.961C207.621 248.861 207.539 248.741 207.483 248.609C207.397 248.406 207.318 248.204 207.233 248.002C206.467 246.138 205.665 244.291 204.825 242.463C194.076 218.868 178.042 198.075 157.97 181.7C157.855 181.619 157.764 181.508 157.706 181.38C157.648 181.251 157.626 181.11 157.641 180.97C157.67 180.809 157.735 180.658 157.831 180.526C157.927 180.394 158.051 180.286 158.195 180.209C158.339 180.132 158.498 180.089 158.66 180.082C158.823 180.076 158.985 180.106 159.134 180.171C159.214 180.207 159.289 180.254 159.357 180.31C167.945 187.319 175.823 195.159 182.878 203.715C189.934 212.263 196.147 221.477 201.43 231.226C202.87 233.889 204.237 236.589 205.532 239.326C205.787 239.87 206.042 240.418 206.292 240.967C207.355 243.278 208.366 245.61 209.326 247.964C209.343 248.002 209.358 248.044 209.374 248.081C209.423 248.182 209.45 248.292 209.453 248.404C209.456 248.516 209.436 248.628 209.392 248.731C209.349 248.834 209.284 248.927 209.202 249.003C209.12 249.08 209.023 249.138 208.917 249.173Z" fill="white"/>
<path d="M314.334 109.172C318.15 109.172 321.243 106.072 321.243 102.249C321.243 98.4253 318.15 95.3257 314.334 95.3257C310.519 95.3257 307.426 98.4253 307.426 102.249C307.426 106.072 310.519 109.172 314.334 109.172Z" fill="#FF5805"/>
<path d="M313.65 104.89C313.494 104.89 313.343 104.84 313.218 104.747L313.211 104.741L311.587 103.495C311.512 103.437 311.448 103.365 311.401 103.283C311.353 103.201 311.322 103.11 311.31 103.016C311.297 102.922 311.303 102.826 311.328 102.734C311.352 102.642 311.394 102.556 311.452 102.481C311.51 102.405 311.582 102.342 311.664 102.294C311.746 102.247 311.837 102.216 311.931 102.203C312.025 102.191 312.12 102.197 312.212 102.222C312.304 102.247 312.389 102.29 312.465 102.348L313.516 103.156L316.001 99.9078C316.059 99.8324 316.131 99.7692 316.213 99.7217C316.295 99.6742 316.385 99.6434 316.479 99.631C316.573 99.6186 316.669 99.6248 316.76 99.6493C316.852 99.6739 316.937 99.7162 317.013 99.774L316.997 99.795L317.013 99.7743C317.165 99.8911 317.264 100.063 317.289 100.253C317.314 100.443 317.263 100.636 317.147 100.788L314.223 104.608C314.156 104.696 314.069 104.767 313.969 104.816C313.87 104.865 313.76 104.89 313.65 104.89Z" fill="white"/>
<path d="M314.334 129.409C318.15 129.409 321.243 126.309 321.243 122.486C321.243 118.662 318.15 115.562 314.334 115.562C310.519 115.562 307.426 118.662 307.426 122.486C307.426 126.309 310.519 129.409 314.334 129.409Z" fill="#FF5805"/>
<path d="M313.65 125.127C313.494 125.127 313.343 125.077 313.218 124.983L313.211 124.977L311.587 123.732C311.512 123.674 311.448 123.602 311.401 123.52C311.353 123.438 311.322 123.347 311.31 123.253C311.297 123.158 311.303 123.062 311.328 122.971C311.352 122.879 311.394 122.793 311.452 122.717C311.51 122.642 311.582 122.578 311.664 122.531C311.746 122.483 311.837 122.452 311.931 122.44C312.025 122.428 312.12 122.434 312.212 122.459C312.304 122.483 312.389 122.526 312.465 122.584L313.516 123.392L316.001 120.144C316.059 120.069 316.131 120.006 316.213 119.958C316.295 119.911 316.385 119.88 316.479 119.868C316.573 119.855 316.669 119.861 316.76 119.886C316.852 119.91 316.937 119.953 317.013 120.011L316.997 120.032L317.013 120.011C317.165 120.128 317.264 120.3 317.289 120.49C317.314 120.68 317.263 120.872 317.147 121.024L314.223 124.845C314.156 124.933 314.069 125.004 313.969 125.053C313.87 125.102 313.76 125.127 313.65 125.127Z" fill="white"/>
<path d="M318.054 152.841C321.87 152.841 324.963 149.741 324.963 145.918C324.963 142.094 321.87 138.995 318.054 138.995C314.239 138.995 311.146 142.094 311.146 145.918C311.146 149.741 314.239 152.841 318.054 152.841Z" fill="#FF5805"/>
<path d="M317.37 148.559C317.214 148.559 317.063 148.509 316.938 148.415L316.931 148.409L315.307 147.164C315.232 147.106 315.168 147.034 315.121 146.952C315.073 146.87 315.042 146.779 315.03 146.685C315.017 146.59 315.023 146.495 315.048 146.403C315.072 146.311 315.114 146.225 315.172 146.149C315.23 146.074 315.302 146.01 315.384 145.963C315.466 145.915 315.557 145.885 315.651 145.872C315.745 145.86 315.84 145.866 315.932 145.891C316.024 145.916 316.109 145.958 316.185 146.016L317.236 146.824L319.721 143.576C319.779 143.501 319.851 143.438 319.933 143.39C320.015 143.343 320.105 143.312 320.199 143.3C320.293 143.287 320.389 143.293 320.48 143.318C320.572 143.343 320.657 143.385 320.733 143.443L320.717 143.464L320.733 143.443C320.885 143.56 320.984 143.732 321.009 143.922C321.034 144.112 320.983 144.304 320.866 144.456L317.943 148.277C317.876 148.365 317.789 148.436 317.689 148.485C317.59 148.534 317.48 148.559 317.37 148.559Z" fill="white"/>
<path d="M384.671 203.72C384.599 203.72 384.554 203.718 384.538 203.717L375.961 203.718V202.451H384.569C384.768 202.458 388.835 202.573 392.581 198.017C398.164 191.228 402.749 174.421 392.885 132.906C379.623 77.0844 390.684 27.7689 396.056 9.1573C396.32 8.23651 396.368 7.26666 396.194 6.32437C396.02 5.38209 395.63 4.49321 395.055 3.72793C394.479 2.96266 393.734 2.34198 392.878 1.91493C392.022 1.48788 391.079 1.26617 390.123 1.26731H262.033C261.059 1.26862 260.1 1.50001 259.232 1.94271C258.364 2.3854 257.612 3.02693 257.038 3.81522C254.763 6.95191 251.64 12.9778 249.686 23.8736L248.442 23.6496C250.438 12.5171 253.662 6.31392 256.015 3.07017C256.707 2.12033 257.612 1.3473 258.658 0.813856C259.704 0.280409 260.86 0.00157773 262.033 3.4491e-06H390.123C391.275 -0.0011078 392.412 0.266317 393.443 0.781149C394.475 1.29598 395.372 2.04412 396.066 2.96645C396.759 3.88877 397.229 4.96003 397.438 6.09557C397.647 7.23111 397.59 8.39984 397.271 9.5094C391.927 28.0245 380.923 77.0841 394.116 132.613C404.118 174.711 399.309 191.883 393.515 198.875C389.692 203.486 385.481 203.72 384.671 203.72Z" fill="#E6E6E6"/>
<path d="M361.591 226.848C361.52 226.848 361.475 226.846 361.459 226.845L352.882 226.846V225.579H361.49C361.69 225.585 365.755 225.701 369.502 221.146C375.085 214.356 379.67 197.549 369.806 156.034C356.544 100.213 367.605 50.8971 372.977 32.2855C373.241 31.3647 373.289 30.3948 373.115 29.4526C372.941 28.5103 372.551 27.6214 371.976 26.8561C371.4 26.0908 370.655 25.4702 369.799 25.0431C368.943 24.6161 368 24.3944 367.044 24.3955H238.954C237.98 24.3968 237.021 24.6282 236.153 25.0709C235.285 25.5136 234.533 26.1551 233.959 26.9434C231.684 30.0801 228.561 36.106 226.607 47.0018L225.362 46.7778C227.359 35.6452 230.583 29.4421 232.936 26.1983C233.628 25.2485 234.533 24.4755 235.579 23.942C236.624 23.4086 237.781 23.1298 238.954 23.1282H367.044C368.196 23.1271 369.333 23.3945 370.364 23.9093C371.396 24.4242 372.293 25.1723 372.987 26.0946C373.68 27.017 374.15 28.0882 374.359 29.2238C374.568 30.3593 374.511 31.528 374.192 32.6376C368.848 51.1527 357.843 100.212 371.037 155.741C381.039 197.839 376.23 215.011 370.436 222.003C366.613 226.615 362.402 226.848 361.591 226.848Z" fill="#CCCCCC"/>
<path d="M347.957 178.872C334.762 123.343 345.768 74.2797 351.114 55.7684C351.432 54.6588 351.489 53.4902 351.279 52.3549C351.07 51.2196 350.6 50.1485 349.907 49.2263C349.214 48.304 348.317 47.5557 347.286 47.0404C346.255 46.5252 345.118 46.257 343.966 46.2571H215.874C214.701 46.2582 213.545 46.5366 212.5 47.0696C211.454 47.6026 210.549 48.3752 209.858 49.3246C204.687 56.45 193.958 80.0791 205.942 145.46C212.35 180.437 212.255 204.285 210.161 219.995C208.986 228.841 207.174 235.103 205.532 239.326L205.357 239.774C205.011 240.628 204.831 241.541 204.826 242.463C204.813 243.504 205.022 244.536 205.437 245.491C205.852 246.446 206.464 247.301 207.233 248.002C207.734 248.473 208.302 248.867 208.917 249.173C209.428 249.435 209.969 249.633 210.528 249.764C211.096 249.904 211.68 249.973 212.265 249.972H338.381C338.397 249.972 338.439 249.977 338.514 249.977C339.322 249.977 343.536 249.743 347.357 245.131C353.149 238.139 357.958 220.97 347.957 178.872ZM346.421 244.274C342.675 248.832 338.61 248.715 338.413 248.71H212.265C211.255 248.71 210.261 248.461 209.369 247.987C208.477 247.513 207.714 246.827 207.148 245.989C206.649 245.264 206.315 244.44 206.167 243.572C206.019 242.705 206.062 241.816 206.292 240.967C206.352 240.72 206.431 240.478 206.526 240.242C208.402 235.412 209.792 230.406 210.676 225.299C213.674 208.923 214.231 183.654 207.185 145.231C195.292 80.3347 205.809 57.0624 210.878 50.0701C211.453 49.283 212.205 48.6424 213.073 48.2002C213.941 47.758 214.9 47.5266 215.874 47.5245H343.966C344.922 47.5239 345.865 47.7458 346.72 48.1728C347.575 48.5999 348.32 49.2203 348.895 49.9851C349.47 50.75 349.86 51.6383 350.034 52.5801C350.208 53.5218 350.161 54.4911 349.897 55.4116C344.524 74.0241 333.465 123.343 346.73 179.165C356.593 220.677 352.007 237.484 346.421 244.274Z" fill="#3F3D56"/>
<path d="M287.104 106.722H221.11C219.768 106.722 218.482 106.188 217.533 105.238C216.584 104.287 216.051 102.998 216.051 101.653C216.051 100.309 216.584 99.0194 217.533 98.0687C218.482 97.1181 219.768 96.584 221.11 96.584H287.104C288.446 96.584 289.733 97.1181 290.681 98.0687C291.63 99.0194 292.163 100.309 292.163 101.653C292.163 102.998 291.63 104.287 290.681 105.238C289.733 106.188 288.446 106.722 287.104 106.722Z" fill="#CCCCCC"/>
<path d="M287.104 128.557H221.11C219.768 128.557 218.482 128.023 217.533 127.072C216.584 126.121 216.051 124.832 216.051 123.488C216.051 122.143 216.584 120.854 217.533 119.903C218.482 118.953 219.768 118.418 221.11 118.418H287.104C288.446 118.418 289.733 118.953 290.681 119.903C291.63 120.854 292.163 122.143 292.163 123.488C292.163 124.832 291.63 126.121 290.681 127.072C289.733 128.023 288.446 128.557 287.104 128.557Z" fill="#CCCCCC"/>
<path d="M292.419 150.924H226.424C225.082 150.924 223.796 150.39 222.847 149.439C221.899 148.488 221.366 147.199 221.366 145.855C221.366 144.51 221.899 143.221 222.847 142.27C223.796 141.319 225.082 140.785 226.424 140.785H292.419C293.76 140.785 295.047 141.319 295.995 142.27C296.944 143.221 297.477 144.51 297.477 145.855C297.477 147.199 296.944 148.488 295.995 149.439C295.047 150.39 293.76 150.924 292.419 150.924Z" fill="#CCCCCC"/>
<path d="M296.138 174.356H230.144C228.802 174.356 227.516 173.822 226.567 172.871C225.618 171.921 225.085 170.631 225.085 169.287C225.085 167.942 225.618 166.653 226.567 165.702C227.516 164.752 228.802 164.218 230.144 164.218H296.138C297.48 164.218 298.767 164.752 299.715 165.702C300.664 166.653 301.197 167.942 301.197 169.287C301.197 170.631 300.664 171.921 299.715 172.871C298.767 173.822 297.48 174.356 296.138 174.356Z" fill="#CCCCCC"/>
<path d="M296.166 67.362H248.744C248.079 67.3627 247.421 67.2321 246.806 66.9777C246.192 66.7232 245.634 66.3499 245.163 65.8791C244.693 65.4084 244.32 64.8493 244.065 64.2339C243.811 63.6186 243.68 62.959 243.68 62.2928C243.68 61.6267 243.811 60.9671 244.065 60.3517C244.32 59.7364 244.693 59.1773 245.163 58.7065C245.634 58.2357 246.192 57.8625 246.806 57.608C247.421 57.3536 248.079 57.223 248.744 57.2236H296.166C297.508 57.2236 298.795 57.7577 299.743 58.7084C300.692 59.659 301.225 60.9484 301.225 62.2928C301.225 63.6373 300.692 64.9266 299.743 65.8773C298.795 66.828 297.508 67.362 296.166 67.362Z" fill="#FF5805"/>
<path d="M322.306 176.21C326.121 176.21 329.214 173.11 329.214 169.287C329.214 165.463 326.121 162.364 322.306 162.364C318.49 162.364 315.397 165.463 315.397 169.287C315.397 173.11 318.49 176.21 322.306 176.21Z" fill="#CCCCCC"/>
<path d="M299.327 197.255H233.332C231.991 197.255 230.704 196.721 229.756 195.771C228.807 194.82 228.274 193.531 228.274 192.186C228.274 190.842 228.807 189.552 229.756 188.602C230.704 187.651 231.991 187.117 233.332 187.117H299.327C300.669 187.117 301.955 187.651 302.904 188.602C303.852 189.552 304.385 190.842 304.385 192.186C304.385 193.531 303.852 194.82 302.904 195.771C301.955 196.721 300.669 197.255 299.327 197.255Z" fill="#CCCCCC"/>
<path d="M325.494 199.109C329.31 199.109 332.403 196.01 332.403 192.186C332.403 188.363 329.31 185.263 325.494 185.263C321.679 185.263 318.586 188.363 318.586 192.186C318.586 196.01 321.679 199.109 325.494 199.109Z" fill="#CCCCCC"/>
</g>
<defs>
<clipPath id="clip0_143_277">
<rect width="451" height="250" fill="white"/>
</clipPath>
</defs>
</svg>
